<?xml version="1.0" encoding="UTF-8" standalone="no"?>
<!DOCTYPE svg PUBLIC "-//W3C//DTD SVG 1.1//EN"
 "http://www.w3.org/Graphics/SVG/1.1/DTD/svg11.dtd">
<!-- Generated by graphviz version 13.0.0 (20250608.1624)
 -->
<!-- Pages: 1 -->
<svg width="718pt" height="1259pt"
 viewBox="0.00 0.00 718.00 1259.00" xmlns="http://www.w3.org/2000/svg" xmlns:xlink="http://www.w3.org/1999/xlink">
<g id="graph0" class="graph" transform="scale(1 1) rotate(0) translate(4 1255)">
<polygon fill="white" stroke="none" points="-4,4 -4,-1255 713.83,-1255 713.83,4 -4,4"/>
<!-- 0 -->
<g id="node1" class="node">
<title>0</title>
<g id="a_node1"><a xlink:title="FA::clean">
<polygon fill="none" stroke="black" points="560.33,-117 491.83,-117 491.83,-81 560.33,-81 560.33,-117"/>
<text xml:space="preserve" text-anchor="middle" x="526.08" y="-93.95" font-family="Times New Roman,serif" font-size="14.00">FA::clean</text>
</a>
</g>
</g>
<!-- 1 -->
<g id="node2" class="node">
<title>1</title>
<g id="a_node2"><a xlink:title="FA::install">
<ellipse fill="none" stroke="black" cx="237.1" cy="-207" rx="49.82" ry="18"/>
<text xml:space="preserve" text-anchor="middle" x="237.1" y="-201.95" font-family="Times New Roman,serif" font-size="14.00">FA::install</text>
</a>
</g>
</g>
<!-- 2 -->
<g id="node3" class="node">
<title>2</title>
<g id="a_node3"><a xlink:title="FA::uninstall">
<polygon fill="none" stroke="black" points="441.53,-333 355.03,-333 355.03,-297 441.53,-297 441.53,-333"/>
<text xml:space="preserve" text-anchor="middle" x="398.28" y="-309.95" font-family="Times New Roman,serif" font-size="14.00">FA::uninstall</text>
</a>
</g>
</g>
<!-- 3 -->
<g id="node4" class="node">
<title>3</title>
<g id="a_node4"><a xlink:title="FM::clean">
<polygon fill="none" stroke="black" points="562.21,-63 489.96,-63 489.96,-27 562.21,-27 562.21,-63"/>
<text xml:space="preserve" text-anchor="middle" x="526.08" y="-39.95" font-family="Times New Roman,serif" font-size="14.00">FM::clean</text>
</a>
</g>
</g>
<!-- 4 -->
<g id="node5" class="node">
<title>4</title>
<g id="a_node5"><a xlink:title="FM::install">
<polygon fill="none" stroke="black" points="275.47,-171 198.72,-171 198.72,-135 275.47,-135 275.47,-171"/>
<text xml:space="preserve" text-anchor="middle" x="237.1" y="-147.95" font-family="Times New Roman,serif" font-size="14.00">FM::install</text>
</a>
</g>
</g>
<!-- 5 -->
<g id="node6" class="node">
<title>5</title>
<g id="a_node6"><a xlink:title="FM::uninstall">
<polygon fill="none" stroke="black" points="443.4,-279 353.15,-279 353.15,-243 443.4,-243 443.4,-279"/>
<text xml:space="preserve" text-anchor="middle" x="398.28" y="-255.95" font-family="Times New Roman,serif" font-size="14.00">FM::uninstall</text>
</a>
</g>
</g>
<!-- 6 -->
<g id="node7" class="node">
<title>6</title>
<g id="a_node7"><a xlink:title="FN::clean">
<polygon fill="none" stroke="black" points="432.9,-90 363.65,-90 363.65,-54 432.9,-54 432.9,-90"/>
<text xml:space="preserve" text-anchor="middle" x="398.28" y="-66.95" font-family="Times New Roman,serif" font-size="14.00">FN::clean</text>
</a>
</g>
</g>
<!-- 6&#45;&gt;0 -->
<g id="edge1" class="edge">
<title>6&#45;&gt;0</title>
<g id="a_edge1"><a xlink:title="FN::clean &#45;&gt; FA::clean">
<path fill="none" stroke="black" d="M433.32,-79.31C447.84,-82.42 464.98,-86.1 480.5,-89.43"/>
<polygon fill="black" stroke="black" points="479.45,-92.79 489.97,-91.46 480.92,-85.94 479.45,-92.79"/>
</a>
</g>
</g>
<!-- 6&#45;&gt;3 -->
<g id="edge2" class="edge">
<title>6&#45;&gt;3</title>
<g id="a_edge2"><a xlink:title="FN::clean &#45;&gt; FM::clean">
<path fill="none" stroke="black" d="M433.32,-64.69C447.24,-61.71 463.56,-58.2 478.55,-54.99"/>
<polygon fill="black" stroke="black" points="479.17,-58.43 488.21,-52.91 477.7,-51.59 479.17,-58.43"/>
</a>
</g>
</g>
<!-- 7 -->
<g id="node8" class="node">
<title>7</title>
<g id="a_node8"><a xlink:title="FN::install">
<ellipse fill="none" stroke="black" cx="62.61" cy="-153" rx="50.33" ry="18"/>
<text xml:space="preserve" text-anchor="middle" x="62.61" y="-147.95" font-family="Times New Roman,serif" font-size="14.00">FN::install</text>
</a>
</g>
</g>
<!-- 7&#45;&gt;1 -->
<g id="edge3" class="edge">
<title>7&#45;&gt;1</title>
<g id="a_edge3"><a xlink:title="FN::install &#45;&gt; FA::install">
<path fill="none" stroke="black" d="M101.46,-164.85C126.83,-172.79 160.45,-183.32 187.74,-191.86"/>
<polygon fill="black" stroke="black" points="186.6,-195.17 197.19,-194.82 188.69,-188.49 186.6,-195.17"/>
</a>
</g>
</g>
<!-- 7&#45;&gt;4 -->
<g id="edge4" class="edge">
<title>7&#45;&gt;4</title>
<g id="a_edge4"><a xlink:title="FN::install &#45;&gt; FM::install">
<path fill="none" stroke="black" d="M113.04,-153C136.29,-153 163.93,-153 187.12,-153"/>
<polygon fill="black" stroke="black" points="186.94,-156.5 196.94,-153 186.94,-149.5 186.94,-156.5"/>
</a>
</g>
</g>
<!-- 9 -->
<g id="node10" class="node">
<title>9</title>
<g id="a_node10"><a xlink:title="FN::helpHLF">
<polygon fill="none" stroke="black" points="275.85,-117 192.35,-117 192.35,-81 281.85,-81 281.85,-111 275.85,-117"/>
<polyline fill="none" stroke="black" points="275.85,-117 275.85,-111"/>
<polyline fill="none" stroke="black" points="281.85,-111 275.85,-111"/>
<text xml:space="preserve" text-anchor="middle" x="237.1" y="-93.95" font-family="Times New Roman,serif" font-size="14.00">FN::helpHLF</text>
</a>
</g>
</g>
<!-- 7&#45;&gt;9 -->
<g id="edge5" class="edge">
<title>7&#45;&gt;9</title>
<g id="a_edge5"><a xlink:title="FN::install &#45;&gt; FN::helpHLF">
<path fill="none" stroke="black" d="M101.46,-141.15C124.81,-133.84 155.14,-124.35 181.1,-116.22"/>
<polygon fill="black" stroke="black" points="181.99,-119.61 190.49,-113.28 179.9,-112.93 181.99,-119.61"/>
</a>
</g>
</g>
<!-- 8 -->
<g id="node9" class="node">
<title>8</title>
<g id="a_node9"><a xlink:title="FN::uninstall">
<ellipse fill="none" stroke="black" cx="237.1" cy="-315" rx="59.54" ry="18"/>
<text xml:space="preserve" text-anchor="middle" x="237.1" y="-309.95" font-family="Times New Roman,serif" font-size="14.00">FN::uninstall</text>
</a>
</g>
</g>
<!-- 8&#45;&gt;2 -->
<g id="edge6" class="edge">
<title>8&#45;&gt;2</title>
<g id="a_edge6"><a xlink:title="FN::uninstall &#45;&gt; FA::uninstall">
<path fill="none" stroke="black" d="M296.92,-315C312.16,-315 328.5,-315 343.47,-315"/>
<polygon fill="black" stroke="black" points="343.1,-318.5 353.1,-315 343.1,-311.5 343.1,-318.5"/>
</a>
</g>
</g>
<!-- 8&#45;&gt;5 -->
<g id="edge7" class="edge">
<title>8&#45;&gt;5</title>
<g id="a_edge7"><a xlink:title="FN::uninstall &#45;&gt; FM::uninstall">
<path fill="none" stroke="black" d="M277.85,-301.51C297.22,-294.94 320.83,-286.93 341.93,-279.78"/>
<polygon fill="black" stroke="black" points="342.92,-283.14 351.26,-276.61 340.67,-276.51 342.92,-283.14"/>
</a>
</g>
</g>
<!-- 10 -->
<g id="node11" class="node">
<title>10</title>
<g id="a_node11"><a xlink:title="FN::markdown">
<polygon fill="none" stroke="black" points="706.83,-360 607.58,-360 607.58,-324 706.83,-324 706.83,-360"/>
<text xml:space="preserve" text-anchor="middle" x="657.21" y="-336.95" font-family="Times New Roman,serif" font-size="14.00">FN::markdown</text>
</a>
</g>
</g>
<!-- 11 -->
<g id="node12" class="node">
<title>11</title>
<g id="a_node12"><a xlink:title="Make Win32 files.">
<polygon fill="none" stroke="black" points="709.83,-306 604.58,-306 604.58,-270 709.83,-270 709.83,-306"/>
<text xml:space="preserve" text-anchor="middle" x="657.21" y="-282.95" font-family="Times New Roman,serif" font-size="14.00">FN::buildWin32</text>
</a>
</g>
</g>
<!-- 12 -->
<g id="node13" class="node">
<title>12</title>
<g id="a_node13"><a xlink:title="FN::package">
<polygon fill="none" stroke="black" points="568.58,-333 483.58,-333 483.58,-297 568.58,-297 568.58,-333"/>
<text xml:space="preserve" text-anchor="middle" x="526.08" y="-309.95" font-family="Times New Roman,serif" font-size="14.00">FN::package</text>
</a>
</g>
</g>
<!-- 12&#45;&gt;10 -->
<g id="edge9" class="edge">
<title>12&#45;&gt;10</title>
<g id="a_edge9"><a xlink:title="FN::package &#45;&gt; FN::markdown">
<path fill="none" stroke="black" d="M569,-323.77C577.69,-325.58 587.01,-327.53 596.21,-329.45"/>
<polygon fill="black" stroke="black" points="595.32,-332.84 605.83,-331.47 596.75,-325.99 595.32,-332.84"/>
</a>
</g>
</g>
<!-- 12&#45;&gt;11 -->
<g id="edge8" class="edge">
<title>12&#45;&gt;11</title>
<g id="a_edge8"><a xlink:title="FN::package &#45;&gt; FN::buildWin32">
<path fill="none" stroke="black" d="M569,-306.23C576.7,-304.62 584.89,-302.91 593.04,-301.21"/>
<polygon fill="black" stroke="black" points="593.55,-304.68 602.62,-299.21 592.11,-297.83 593.55,-304.68"/>
</a>
</g>
</g>
<!-- 13 -->
<g id="node14" class="node">
<title>13</title>
<g id="a_node14"><a xlink:title="FN::version">
<polygon fill="none" stroke="black" points="566.33,-387 485.83,-387 485.83,-351 566.33,-351 566.33,-387"/>
<text xml:space="preserve" text-anchor="middle" x="526.08" y="-363.95" font-family="Times New Roman,serif" font-size="14.00">FN::version</text>
</a>
</g>
</g>
<!-- 14 -->
<g id="node15" class="node">
<title>14</title>
<g id="a_node15"><a xlink:title="FN::nuget">
<polygon fill="none" stroke="black" points="433.65,-387 362.9,-387 362.9,-351 433.65,-351 433.65,-387"/>
<text xml:space="preserve" text-anchor="middle" x="398.28" y="-363.95" font-family="Times New Roman,serif" font-size="14.00">FN::nuget</text>
</a>
</g>
</g>
<!-- 14&#45;&gt;12 -->
<g id="edge10" class="edge">
<title>14&#45;&gt;12</title>
<g id="a_edge10"><a xlink:title="FN::nuget &#45;&gt; FN::package">
<path fill="none" stroke="black" d="M433.99,-354.1C446.04,-348.93 459.83,-343.01 472.97,-337.37"/>
<polygon fill="black" stroke="black" points="474.13,-340.68 481.94,-333.52 471.37,-334.25 474.13,-340.68"/>
</a>
</g>
</g>
<!-- 14&#45;&gt;13 -->
<g id="edge11" class="edge">
<title>14&#45;&gt;13</title>
<g id="a_edge11"><a xlink:title="FN::nuget &#45;&gt; FN::version">
<path fill="none" stroke="black" d="M433.99,-369C446.49,-369 460.86,-369 474.44,-369"/>
<polygon fill="black" stroke="black" points="474.09,-372.5 484.09,-369 474.09,-365.5 474.09,-372.5"/>
</a>
</g>
</g>
<!-- 15 -->
<g id="node16" class="node">
<title>15</title>
<g id="a_node16"><a xlink:title="FN::test">
<polygon fill="none" stroke="black" points="92.36,-441 32.86,-441 32.86,-405 92.36,-405 92.36,-441"/>
<text xml:space="preserve" text-anchor="middle" x="62.61" y="-417.95" font-family="Times New Roman,serif" font-size="14.00">FN::test</text>
</a>
</g>
</g>
<!-- 16 -->
<g id="node17" class="node">
<title>16</title>
<g id="a_node17"><a xlink:title="PS::clean">
<polygon fill="none" stroke="black" points="431.78,-36 364.78,-36 364.78,0 431.78,0 431.78,-36"/>
<text xml:space="preserve" text-anchor="middle" x="398.28" y="-12.95" font-family="Times New Roman,serif" font-size="14.00">PS::clean</text>
</a>
</g>
</g>
<!-- 17 -->
<g id="node18" class="node">
<title>17</title>
<g id="a_node18"><a xlink:title="PS::publish">
<ellipse fill="none" stroke="black" cx="62.61" cy="-477" rx="53.4" ry="18"/>
<text xml:space="preserve" text-anchor="middle" x="62.61" y="-471.95" font-family="Times New Roman,serif" font-size="14.00">PS::publish</text>
</a>
</g>
</g>
<!-- 20 -->
<g id="node21" class="node">
<title>20</title>
<g id="a_node21"><a xlink:title="PS::installBin">
<polygon fill="none" stroke="black" points="282.6,-522 191.6,-522 191.6,-486 282.6,-486 282.6,-522"/>
<text xml:space="preserve" text-anchor="middle" x="237.1" y="-498.95" font-family="Times New Roman,serif" font-size="14.00">PS::installBin</text>
</a>
</g>
</g>
<!-- 17&#45;&gt;20 -->
<g id="edge12" class="edge">
<title>17&#45;&gt;20</title>
<g id="a_edge12"><a xlink:title="PS::publish &#45;&gt; PS::installBin">
<path fill="none" stroke="black" d="M111.66,-484.52C132.88,-487.84 157.97,-491.77 180.04,-495.22"/>
<polygon fill="black" stroke="black" points="179.35,-498.66 189.77,-496.75 180.43,-491.74 179.35,-498.66"/>
</a>
</g>
</g>
<!-- 21 -->
<g id="node22" class="node">
<title>21</title>
<g id="a_node22"><a xlink:title="PS::installRes">
<polygon fill="none" stroke="black" points="282.97,-468 191.22,-468 191.22,-432 282.97,-432 282.97,-468"/>
<text xml:space="preserve" text-anchor="middle" x="237.1" y="-444.95" font-family="Times New Roman,serif" font-size="14.00">PS::installRes</text>
</a>
</g>
</g>
<!-- 17&#45;&gt;21 -->
<g id="edge13" class="edge">
<title>17&#45;&gt;21</title>
<g id="a_edge13"><a xlink:title="PS::publish &#45;&gt; PS::installRes">
<path fill="none" stroke="black" d="M111.66,-469.48C132.79,-466.17 157.77,-462.26 179.77,-458.82"/>
<polygon fill="black" stroke="black" points="180.14,-462.3 189.48,-457.3 179.06,-455.39 180.14,-462.3"/>
</a>
</g>
</g>
<!-- 18 -->
<g id="node19" class="node">
<title>18</title>
<g id="a_node19"><a xlink:title="PS::uninstall">
<polygon fill="none" stroke="black" points="279.6,-279 194.6,-279 194.6,-243 279.6,-243 279.6,-279"/>
<text xml:space="preserve" text-anchor="middle" x="237.1" y="-255.95" font-family="Times New Roman,serif" font-size="14.00">PS::uninstall</text>
</a>
</g>
</g>
<!-- 19 -->
<g id="node20" class="node">
<title>19</title>
<g id="a_node20"><a xlink:title="PS::markdown">
<polygon fill="none" stroke="black" points="705.71,-495 608.71,-495 608.71,-459 705.71,-459 705.71,-495"/>
<text xml:space="preserve" text-anchor="middle" x="657.21" y="-471.95" font-family="Times New Roman,serif" font-size="14.00">PS::markdown</text>
</a>
</g>
</g>
<!-- 22 -->
<g id="node23" class="node">
<title>22</title>
<g id="a_node23"><a xlink:title="PS::help">
<polygon fill="none" stroke="black" points="682.08,-549 626.33,-549 626.33,-513 688.08,-513 688.08,-543 682.08,-549"/>
<polyline fill="none" stroke="black" points="682.08,-549 682.08,-543"/>
<polyline fill="none" stroke="black" points="688.08,-543 682.08,-543"/>
<text xml:space="preserve" text-anchor="middle" x="657.21" y="-525.95" font-family="Times New Roman,serif" font-size="14.00">PS::help</text>
</a>
</g>
</g>
<!-- 23 -->
<g id="node24" class="node">
<title>23</title>
<g id="a_node24"><a xlink:title="PS::package">
<polygon fill="none" stroke="black" points="567.46,-495 484.71,-495 484.71,-459 567.46,-459 567.46,-495"/>
<text xml:space="preserve" text-anchor="middle" x="526.08" y="-471.95" font-family="Times New Roman,serif" font-size="14.00">PS::package</text>
</a>
</g>
</g>
<!-- 23&#45;&gt;19 -->
<g id="edge14" class="edge">
<title>23&#45;&gt;19</title>
<g id="a_edge14"><a xlink:title="PS::package &#45;&gt; PS::markdown">
<path fill="none" stroke="black" d="M567.94,-477C577.18,-477 587.17,-477 597,-477"/>
<polygon fill="black" stroke="black" points="596.89,-480.5 606.89,-477 596.89,-473.5 596.89,-480.5"/>
</a>
</g>
</g>
<!-- 24 -->
<g id="node25" class="node">
<title>24</title>
<g id="a_node25"><a xlink:title="PS::version">
<polygon fill="none" stroke="black" points="565.21,-441 486.96,-441 486.96,-405 565.21,-405 565.21,-441"/>
<text xml:space="preserve" text-anchor="middle" x="526.08" y="-417.95" font-family="Times New Roman,serif" font-size="14.00">PS::version</text>
</a>
</g>
</g>
<!-- 25 -->
<g id="node26" class="node">
<title>25</title>
<g id="a_node26"><a xlink:title="PS::nuget">
<polygon fill="none" stroke="black" points="432.53,-441 364.03,-441 364.03,-405 432.53,-405 432.53,-441"/>
<text xml:space="preserve" text-anchor="middle" x="398.28" y="-417.95" font-family="Times New Roman,serif" font-size="14.00">PS::nuget</text>
</a>
</g>
</g>
<!-- 25&#45;&gt;23 -->
<g id="edge15" class="edge">
<title>25&#45;&gt;23</title>
<g id="a_edge15"><a xlink:title="PS::nuget &#45;&gt; PS::package">
<path fill="none" stroke="black" d="M432.99,-437.47C445.63,-442.9 460.3,-449.19 474.16,-455.14"/>
<polygon fill="black" stroke="black" points="472.59,-458.28 483.16,-459.01 475.35,-451.85 472.59,-458.28"/>
</a>
</g>
</g>
<!-- 25&#45;&gt;24 -->
<g id="edge16" class="edge">
<title>25&#45;&gt;24</title>
<g id="a_edge16"><a xlink:title="PS::nuget &#45;&gt; PS::version">
<path fill="none" stroke="black" d="M432.99,-423C446.08,-423 461.35,-423 475.64,-423"/>
<polygon fill="black" stroke="black" points="475.31,-426.5 485.31,-423 475.31,-419.5 475.31,-426.5"/>
</a>
</g>
</g>
<!-- 26 -->
<g id="node27" class="node">
<title>26</title>
<g id="a_node27"><a xlink:title="Uninstall and clean.">
<polygon fill="none" stroke="black" points="96.86,-549 28.36,-549 28.36,-513 96.86,-513 96.86,-549"/>
<text xml:space="preserve" text-anchor="middle" x="62.61" y="-525.95" font-family="Times New Roman,serif" font-size="14.00">GH::reset</text>
</a>
</g>
</g>
<!-- 27 -->
<g id="node28" class="node">
<title>27</title>
<g id="a_node28"><a xlink:title="Remove temp files.">
<polygon fill="none" stroke="black" points="272.85,-63 201.35,-63 201.35,-27 272.85,-27 272.85,-63"/>
<text xml:space="preserve" text-anchor="middle" x="237.1" y="-39.95" font-family="Times New Roman,serif" font-size="14.00">GH::clean</text>
</a>
</g>
</g>
<!-- 27&#45;&gt;6 -->
<g id="edge17" class="edge">
<title>27&#45;&gt;6</title>
<g id="a_edge17"><a xlink:title="GH::clean &#45;&gt; FN::clean">
<path fill="none" stroke="black" d="M273.03,-50.93C296.28,-54.87 327.06,-60.09 352.16,-64.35"/>
<polygon fill="black" stroke="black" points="351.31,-67.75 361.75,-65.97 352.48,-60.85 351.31,-67.75"/>
</a>
</g>
</g>
<!-- 27&#45;&gt;16 -->
<g id="edge18" class="edge">
<title>27&#45;&gt;16</title>
<g id="a_edge18"><a xlink:title="GH::clean &#45;&gt; PS::clean">
<path fill="none" stroke="black" d="M273.03,-39.07C296.6,-35.08 327.9,-29.77 353.18,-25.48"/>
<polygon fill="black" stroke="black" points="353.56,-28.96 362.84,-23.84 352.39,-22.06 353.56,-28.96"/>
</a>
</g>
</g>
<!-- 28 -->
<g id="node29" class="node">
<title>28</title>
<g id="a_node29"><a xlink:title="Generate or update meta files.">
<polygon fill="none" stroke="black" points="686.21,-603 622.21,-603 622.21,-567 692.21,-567 692.21,-597 686.21,-603"/>
<polyline fill="none" stroke="black" points="686.21,-603 686.21,-597"/>
<polyline fill="none" stroke="black" points="692.21,-597 686.21,-597"/>
<text xml:space="preserve" text-anchor="middle" x="657.21" y="-579.95" font-family="Times New Roman,serif" font-size="14.00">GH::meta</text>
</a>
</g>
</g>
<!-- 29 -->
<g id="node30" class="node">
<title>29</title>
<g id="a_node30"><a xlink:title="Build projects and PSF help.">
<polygon fill="none" stroke="black" points="561.46,-549 490.71,-549 490.71,-513 561.46,-513 561.46,-549"/>
<text xml:space="preserve" text-anchor="middle" x="526.08" y="-525.95" font-family="Times New Roman,serif" font-size="14.00">GH::build</text>
</a>
</g>
</g>
<!-- 29&#45;&gt;19 -->
<g id="edge21" class="edge">
<title>29&#45;&gt;19</title>
<g id="a_edge21"><a xlink:title="GH::build &#45;&gt; PS::markdown">
<path fill="none" stroke="black" d="M561.68,-516.53C574.07,-511.35 588.34,-505.38 601.98,-499.68"/>
<polygon fill="black" stroke="black" points="602.97,-503.06 610.85,-495.97 600.27,-496.6 602.97,-503.06"/>
</a>
</g>
</g>
<!-- 29&#45;&gt;22 -->
<g id="edge20" class="edge">
<title>29&#45;&gt;22</title>
<g id="a_edge20"><a xlink:title="GH::build &#45;&gt; PS::help">
<path fill="none" stroke="black" d="M561.68,-531C577.95,-531 597.48,-531 614.55,-531"/>
<polygon fill="black" stroke="black" points="614.39,-534.5 624.39,-531 614.39,-527.5 614.39,-534.5"/>
</a>
</g>
</g>
<!-- 29&#45;&gt;28 -->
<g id="edge19" class="edge">
<title>29&#45;&gt;28</title>
<g id="a_edge19"><a xlink:title="GH::build &#45;&gt; GH::meta">
<path fill="none" stroke="black" d="M561.68,-545.47C577,-551.88 595.22,-559.49 611.55,-566.32"/>
<polygon fill="black" stroke="black" points="609.98,-569.46 620.56,-570.09 612.68,-563.01 609.98,-569.46"/>
</a>
</g>
</g>
<!-- 30 -->
<g id="node31" class="node">
<title>30</title>
<g id="a_node31"><a xlink:title="Build and install API docs.">
<polygon fill="none" stroke="black" points="96.49,-603 28.74,-603 28.74,-567 96.49,-567 96.49,-603"/>
<text xml:space="preserve" text-anchor="middle" x="62.61" y="-579.95" font-family="Times New Roman,serif" font-size="14.00">GH::docs</text>
</a>
</g>
</g>
<!-- 31 -->
<g id="node32" class="node">
<title>31</title>
<g id="a_node32"><a xlink:title="Remove files from FarHome.">
<ellipse fill="none" stroke="black" cx="62.61" cy="-288" rx="61.08" ry="18"/>
<text xml:space="preserve" text-anchor="middle" x="62.61" y="-282.95" font-family="Times New Roman,serif" font-size="14.00">GH::uninstall</text>
</a>
</g>
</g>
<!-- 31&#45;&gt;8 -->
<g id="edge22" class="edge">
<title>31&#45;&gt;8</title>
<g id="a_edge22"><a xlink:title="GH::uninstall &#45;&gt; FN::uninstall">
<path fill="none" stroke="black" d="M117.24,-296.39C134.6,-299.11 154.03,-302.15 172.07,-304.98"/>
<polygon fill="black" stroke="black" points="171.47,-308.43 181.89,-306.52 172.55,-301.51 171.47,-308.43"/>
</a>
</g>
</g>
<!-- 31&#45;&gt;18 -->
<g id="edge23" class="edge">
<title>31&#45;&gt;18</title>
<g id="a_edge23"><a xlink:title="GH::uninstall &#45;&gt; PS::uninstall">
<path fill="none" stroke="black" d="M117.24,-279.61C138.19,-276.33 162.14,-272.58 183.03,-269.31"/>
<polygon fill="black" stroke="black" points="183.45,-272.78 192.78,-267.78 182.36,-265.87 183.45,-272.78"/>
</a>
</g>
</g>
<!-- 32 -->
<g id="node33" class="node">
<title>32</title>
<g id="a_node33"><a xlink:title="Make the NuGet packages at $Home.">
<polygon fill="none" stroke="black" points="273.6,-387 200.6,-387 200.6,-351 273.6,-351 273.6,-387"/>
<text xml:space="preserve" text-anchor="middle" x="237.1" y="-363.95" font-family="Times New Roman,serif" font-size="14.00">GH::nuget</text>
</a>
</g>
</g>
<!-- 32&#45;&gt;14 -->
<g id="edge24" class="edge">
<title>32&#45;&gt;14</title>
<g id="a_edge24"><a xlink:title="GH::nuget &#45;&gt; FN::nuget">
<path fill="none" stroke="black" d="M273.82,-369C296.69,-369 326.58,-369 351.23,-369"/>
<polygon fill="black" stroke="black" points="350.98,-372.5 360.98,-369 350.98,-365.5 350.98,-372.5"/>
</a>
</g>
</g>
<!-- 32&#45;&gt;25 -->
<g id="edge25" class="edge">
<title>32&#45;&gt;25</title>
<g id="a_edge25"><a xlink:title="GH::nuget &#45;&gt; PS::nuget">
<path fill="none" stroke="black" d="M273.82,-381.12C297.22,-389.06 327.96,-399.49 352.92,-407.95"/>
<polygon fill="black" stroke="black" points="351.55,-411.18 362.15,-411.08 353.8,-404.56 351.55,-411.18"/>
</a>
</g>
</g>
<!-- 33 -->
<g id="node34" class="node">
<title>33</title>
<g id="a_node34"><a xlink:title="Build all modules.">
<polygon fill="none" stroke="black" points="107.36,-657 17.86,-657 17.86,-621 107.36,-621 107.36,-657"/>
<text xml:space="preserve" text-anchor="middle" x="62.61" y="-633.95" font-family="Times New Roman,serif" font-size="14.00">GH::modules</text>
</a>
</g>
</g>
<!-- 34 -->
<g id="node35" class="node">
<title>34</title>
<g id="a_node35"><a xlink:title="Ensure Help, to test by Test&#45;Help&#45;.ps1">
<polygon fill="none" stroke="black" points="312.97,-657 161.22,-657 161.22,-621 312.97,-621 312.97,-657"/>
<text xml:space="preserve" text-anchor="middle" x="237.1" y="-633.95" font-family="Times New Roman,serif" font-size="14.00">GH::buildFarDescription</text>
</a>
</g>
</g>
<!-- 33&#45;&gt;34 -->
<g id="edge26" class="edge">
<title>33&#45;&gt;34</title>
<g id="a_edge26"><a xlink:title="GH::modules &#45;&gt; GH::buildFarDescription">
<path fill="none" stroke="black" d="M107.58,-639C120.55,-639 135.21,-639 149.86,-639"/>
<polygon fill="black" stroke="black" points="149.53,-642.5 159.53,-639 149.53,-635.5 149.53,-642.5"/>
</a>
</g>
</g>
<!-- 35 -->
<g id="node36" class="node">
<title>35</title>
<g id="a_node36"><a xlink:title="DC::build">
<polygon fill="none" stroke="black" points="561.08,-765 491.08,-765 491.08,-729 561.08,-729 561.08,-765"/>
<text xml:space="preserve" text-anchor="middle" x="526.08" y="-741.95" font-family="Times New Roman,serif" font-size="14.00">DC::build</text>
</a>
</g>
</g>
<!-- 39 -->
<g id="node40" class="node">
<title>39</title>
<g id="a_node40"><a xlink:title="DC::test">
<polygon fill="none" stroke="black" points="687.71,-765 626.71,-765 626.71,-729 687.71,-729 687.71,-765"/>
<text xml:space="preserve" text-anchor="middle" x="657.21" y="-741.95" font-family="Times New Roman,serif" font-size="14.00">DC::test</text>
</a>
</g>
</g>
<!-- 35&#45;&gt;39 -->
<g id="edge27" class="edge">
<title>35&#45;&gt;39</title>
<g id="a_edge27"><a xlink:title="DC::build &#45;&gt; DC::test">
<path fill="none" stroke="black" d="M561.34,-747C577.86,-747 597.79,-747 615.11,-747"/>
<polygon fill="black" stroke="black" points="615.1,-750.5 625.1,-747 615.1,-743.5 615.1,-750.5"/>
</a>
</g>
</g>
<!-- 36 -->
<g id="node37" class="node">
<title>36</title>
<g id="a_node37"><a xlink:title="DC::install">
<polygon fill="none" stroke="black" points="563.71,-711 488.46,-711 488.46,-675 563.71,-675 563.71,-711"/>
<text xml:space="preserve" text-anchor="middle" x="526.08" y="-687.95" font-family="Times New Roman,serif" font-size="14.00">DC::install</text>
</a>
</g>
</g>
<!-- 37 -->
<g id="node38" class="node">
<title>37</title>
<g id="a_node38"><a xlink:title="DC::clean">
<polygon fill="none" stroke="black" points="561.46,-657 490.71,-657 490.71,-621 561.46,-621 561.46,-657"/>
<text xml:space="preserve" text-anchor="middle" x="526.08" y="-633.95" font-family="Times New Roman,serif" font-size="14.00">DC::clean</text>
</a>
</g>
</g>
<!-- 38 -->
<g id="node39" class="node">
<title>38</title>
<g id="a_node39"><a xlink:title="DC::make">
<ellipse fill="none" stroke="black" cx="398.28" cy="-693" rx="49.3" ry="18"/>
<text xml:space="preserve" text-anchor="middle" x="398.28" y="-687.95" font-family="Times New Roman,serif" font-size="14.00">DC::make</text>
</a>
</g>
</g>
<!-- 38&#45;&gt;35 -->
<g id="edge28" class="edge">
<title>38&#45;&gt;35</title>
<g id="a_edge28"><a xlink:title="DC::make &#45;&gt; DC::build">
<path fill="none" stroke="black" d="M431.35,-706.77C446.28,-713.17 464.28,-720.9 480.51,-727.87"/>
<polygon fill="black" stroke="black" points="478.9,-730.99 489.47,-731.72 481.66,-724.56 478.9,-730.99"/>
</a>
</g>
</g>
<!-- 38&#45;&gt;36 -->
<g id="edge29" class="edge">
<title>38&#45;&gt;36</title>
<g id="a_edge29"><a xlink:title="DC::make &#45;&gt; DC::install">
<path fill="none" stroke="black" d="M447.92,-693C457.45,-693 467.45,-693 476.97,-693"/>
<polygon fill="black" stroke="black" points="476.77,-696.5 486.77,-693 476.77,-689.5 476.77,-696.5"/>
</a>
</g>
</g>
<!-- 38&#45;&gt;37 -->
<g id="edge30" class="edge">
<title>38&#45;&gt;37</title>
<g id="a_edge30"><a xlink:title="DC::make &#45;&gt; DC::clean">
<path fill="none" stroke="black" d="M431.35,-679.23C446.16,-672.88 464,-665.22 480.12,-658.3"/>
<polygon fill="black" stroke="black" points="481.22,-661.64 489.03,-654.48 478.46,-655.2 481.22,-661.64"/>
</a>
</g>
</g>
<!-- 40 -->
<g id="node41" class="node">
<title>40</title>
<g id="a_node41"><a xlink:title="DC::run">
<polygon fill="none" stroke="black" points="92.74,-819 32.49,-819 32.49,-783 92.74,-783 92.74,-819"/>
<text xml:space="preserve" text-anchor="middle" x="62.61" y="-795.95" font-family="Times New Roman,serif" font-size="14.00">DC::run</text>
</a>
</g>
</g>
<!-- 41 -->
<g id="node42" class="node">
<title>41</title>
<g id="a_node42"><a xlink:title="setVersion">
<polygon fill="none" stroke="black" points="92.74,-873 26.49,-873 26.49,-837 98.74,-837 98.74,-867 92.74,-873"/>
<polyline fill="none" stroke="black" points="92.74,-873 92.74,-867"/>
<polyline fill="none" stroke="black" points="98.74,-867 92.74,-867"/>
<text xml:space="preserve" text-anchor="middle" x="62.61" y="-849.95" font-family="Times New Roman,serif" font-size="14.00">setVersion</text>
</a>
</g>
</g>
<!-- 42 -->
<g id="node43" class="node">
<title>42</title>
<g id="a_node43"><a xlink:title="chooseToPush">
<polygon fill="none" stroke="black" points="109.61,-927 15.61,-927 15.61,-891 109.61,-891 109.61,-927"/>
<text xml:space="preserve" text-anchor="middle" x="62.61" y="-903.95" font-family="Times New Roman,serif" font-size="14.00">chooseToPush</text>
</a>
</g>
</g>
<!-- 43 -->
<g id="node44" class="node">
<title>43</title>
<g id="a_node44"><a xlink:title="build">
<ellipse fill="none" stroke="black" cx="62.61" cy="-747" rx="29.86" ry="18"/>
<text xml:space="preserve" text-anchor="middle" x="62.61" y="-741.95" font-family="Times New Roman,serif" font-size="14.00">build</text>
</a>
</g>
</g>
<!-- 44 -->
<g id="node45" class="node">
<title>44</title>
<g id="a_node45"><a xlink:title="buildFarNet">
<polygon fill="none" stroke="black" points="271.72,-819 196.47,-819 196.47,-783 277.72,-783 277.72,-813 271.72,-819"/>
<polyline fill="none" stroke="black" points="271.72,-819 271.72,-813"/>
<polyline fill="none" stroke="black" points="277.72,-813 271.72,-813"/>
<text xml:space="preserve" text-anchor="middle" x="237.1" y="-795.95" font-family="Times New Roman,serif" font-size="14.00">buildFarNet</text>
</a>
</g>
</g>
<!-- 43&#45;&gt;44 -->
<g id="edge31" class="edge">
<title>43&#45;&gt;44</title>
<g id="a_edge31"><a xlink:title="build &#45;&gt; buildFarNet">
<path fill="none" stroke="black" d="M89.81,-755.2C115.1,-763.12 154.07,-775.32 185.43,-785.14"/>
<polygon fill="black" stroke="black" points="184.13,-788.4 194.72,-788.05 186.22,-781.72 184.13,-788.4"/>
</a>
</g>
</g>
<!-- 45 -->
<g id="node46" class="node">
<title>45</title>
<g id="a_node46"><a xlink:title="buildPsfHelp">
<polygon fill="none" stroke="black" points="274.72,-765 193.47,-765 193.47,-729 280.72,-729 280.72,-759 274.72,-765"/>
<polyline fill="none" stroke="black" points="274.72,-765 274.72,-759"/>
<polyline fill="none" stroke="black" points="280.72,-759 274.72,-759"/>
<text xml:space="preserve" text-anchor="middle" x="237.1" y="-741.95" font-family="Times New Roman,serif" font-size="14.00">buildPsfHelp</text>
</a>
</g>
</g>
<!-- 43&#45;&gt;45 -->
<g id="edge32" class="edge">
<title>43&#45;&gt;45</title>
<g id="a_edge32"><a xlink:title="build &#45;&gt; buildPsfHelp">
<path fill="none" stroke="black" d="M92.87,-747C117.14,-747 152.3,-747 181.71,-747"/>
<polygon fill="black" stroke="black" points="181.57,-750.5 191.57,-747 181.57,-743.5 181.57,-750.5"/>
</a>
</g>
</g>
<!-- 46 -->
<g id="node47" class="node">
<title>46</title>
<g id="a_node47"><a xlink:title="buildDocs">
<ellipse fill="none" stroke="black" cx="237.1" cy="-693" rx="48.79" ry="18"/>
<text xml:space="preserve" text-anchor="middle" x="237.1" y="-687.95" font-family="Times New Roman,serif" font-size="14.00">buildDocs</text>
</a>
</g>
</g>
<!-- 43&#45;&gt;46 -->
<g id="edge33" class="edge">
<title>43&#45;&gt;46</title>
<g id="a_edge33"><a xlink:title="build &#45;&gt; buildDocs">
<path fill="none" stroke="black" d="M89.81,-738.8C115.86,-730.64 156.42,-717.95 188.23,-707.99"/>
<polygon fill="black" stroke="black" points="189.13,-711.37 197.63,-705.04 187.04,-704.69 189.13,-711.37"/>
</a>
</g>
</g>
<!-- 46&#45;&gt;38 -->
<g id="edge34" class="edge">
<title>46&#45;&gt;38</title>
<g id="a_edge34"><a xlink:title="buildDocs &#45;&gt; DC::make">
<path fill="none" stroke="black" d="M286.29,-693C302.35,-693 320.44,-693 337.28,-693"/>
<polygon fill="black" stroke="black" points="337.19,-696.5 347.19,-693 337.19,-689.5 337.19,-696.5"/>
</a>
</g>
</g>
<!-- 47 -->
<g id="node48" class="node">
<title>47</title>
<g id="a_node48"><a xlink:title="nugetAndTest">
<polygon fill="none" stroke="black" points="102.49,-387 16.74,-387 16.74,-351 108.49,-351 108.49,-381 102.49,-387"/>
<polyline fill="none" stroke="black" points="102.49,-387 102.49,-381"/>
<polyline fill="none" stroke="black" points="108.49,-381 102.49,-381"/>
<text xml:space="preserve" text-anchor="middle" x="62.61" y="-363.95" font-family="Times New Roman,serif" font-size="14.00">nugetAndTest</text>
</a>
</g>
</g>
<!-- 47&#45;&gt;32 -->
<g id="edge35" class="edge">
<title>47&#45;&gt;32</title>
<g id="a_edge35"><a xlink:title="nugetAndTest &#45;&gt; GH::nuget">
<path fill="none" stroke="black" d="M108.93,-369C133.57,-369 164.02,-369 188.94,-369"/>
<polygon fill="black" stroke="black" points="188.81,-372.5 198.81,-369 188.81,-365.5 188.81,-372.5"/>
</a>
</g>
</g>
<!-- 48 -->
<g id="node49" class="node">
<title>48</title>
<g id="a_node49"><a xlink:title="testAll">
<polygon fill="none" stroke="black" points="83.61,-981 35.61,-981 35.61,-945 89.61,-945 89.61,-975 83.61,-981"/>
<polyline fill="none" stroke="black" points="83.61,-981 83.61,-975"/>
<polyline fill="none" stroke="black" points="89.61,-975 83.61,-975"/>
<text xml:space="preserve" text-anchor="middle" x="62.61" y="-957.95" font-family="Times New Roman,serif" font-size="14.00">testAll</text>
</a>
</g>
</g>
<!-- 49 -->
<g id="node50" class="node">
<title>49</title>
<g id="a_node50"><a xlink:title="pushPackages">
<ellipse fill="none" stroke="black" cx="62.61" cy="-1017" rx="62.61" ry="18"/>
<text xml:space="preserve" text-anchor="middle" x="62.61" y="-1011.95" font-family="Times New Roman,serif" font-size="14.00">pushPackages</text>
</a>
</g>
</g>
<!-- 50 -->
<g id="node51" class="node">
<title>50</title>
<g id="a_node51"><a xlink:title="commitSource">
<polygon fill="none" stroke="black" points="104.74,-1089 14.49,-1089 14.49,-1053 110.74,-1053 110.74,-1083 104.74,-1089"/>
<polyline fill="none" stroke="black" points="104.74,-1089 104.74,-1083"/>
<polyline fill="none" stroke="black" points="110.74,-1083 104.74,-1083"/>
<text xml:space="preserve" text-anchor="middle" x="62.61" y="-1065.95" font-family="Times New Roman,serif" font-size="14.00">commitSource</text>
</a>
</g>
</g>
<!-- 51 -->
<g id="node52" class="node">
<title>51</title>
<g id="a_node52"><a xlink:title="pushSource">
<polygon fill="none" stroke="black" points="96.11,-1143 23.11,-1143 23.11,-1107 102.11,-1107 102.11,-1137 96.11,-1143"/>
<polyline fill="none" stroke="black" points="96.11,-1143 96.11,-1137"/>
<polyline fill="none" stroke="black" points="102.11,-1137 96.11,-1137"/>
<text xml:space="preserve" text-anchor="middle" x="62.61" y="-1119.95" font-family="Times New Roman,serif" font-size="14.00">pushSource</text>
</a>
</g>
</g>
<!-- 52 -->
<g id="node53" class="node">
<title>52</title>
<g id="a_node53"><a xlink:title="clean">
<ellipse fill="none" stroke="black" cx="62.61" cy="-45" rx="30.37" ry="18"/>
<text xml:space="preserve" text-anchor="middle" x="62.61" y="-39.95" font-family="Times New Roman,serif" font-size="14.00">clean</text>
</a>
</g>
</g>
<!-- 52&#45;&gt;27 -->
<g id="edge36" class="edge">
<title>52&#45;&gt;27</title>
<g id="a_edge36"><a xlink:title="clean &#45;&gt; GH::clean">
<path fill="none" stroke="black" d="M93.26,-45C119.74,-45 158.96,-45 189.6,-45"/>
<polygon fill="black" stroke="black" points="189.37,-48.5 199.37,-45 189.37,-41.5 189.37,-48.5"/>
</a>
</g>
</g>
<!-- 53 -->
<g id="node54" class="node">
<title>53</title>
<g id="a_node54"><a xlink:title="zipFarDev">
<polygon fill="none" stroke="black" points="93.11,-1197 26.11,-1197 26.11,-1161 99.11,-1161 99.11,-1191 93.11,-1197"/>
<polyline fill="none" stroke="black" points="93.11,-1197 93.11,-1191"/>
<polyline fill="none" stroke="black" points="99.11,-1191 93.11,-1191"/>
<text xml:space="preserve" text-anchor="middle" x="62.61" y="-1173.95" font-family="Times New Roman,serif" font-size="14.00">zipFarDev</text>
</a>
</g>
</g>
<!-- 54 -->
<g id="node55" class="node">
<title>54</title>
<g id="a_node55"><a xlink:title=".">
<ellipse fill="none" stroke="black" cx="62.61" cy="-1233" rx="27" ry="18"/>
<text xml:space="preserve" text-anchor="middle" x="62.61" y="-1227.95" font-family="Times New Roman,serif" font-size="14.00">.</text>
</a>
</g>
</g>
</g>
</svg>
