<?xml version="1.0" encoding="UTF-8" standalone="no"?>
<!DOCTYPE svg PUBLIC "-//W3C//DTD SVG 1.1//EN"
 "http://www.w3.org/Graphics/SVG/1.1/DTD/svg11.dtd">
<!-- Generated by graphviz version 13.0.0 (20250608.1624)
 -->
<!-- Pages: 1 -->
<svg width="805pt" height="1351pt"
 viewBox="0.00 0.00 805.00 1351.00" xmlns="http://www.w3.org/2000/svg" xmlns:xlink="http://www.w3.org/1999/xlink">
<g id="graph0" class="graph" transform="scale(1 1) rotate(0) translate(4 1347)">
<polygon fill="white" stroke="none" points="-4,4 -4,-1347 801.37,-1347 801.37,4 -4,4"/>
<g id="clust1" class="cluster">
<title>cluster_0</title>
<polygon fill="none" stroke="black" stroke-dasharray="1,5" points="169.22,-633 169.22,-1034 495.12,-1034 495.12,-633 169.22,-633"/>
<text xml:space="preserve" text-anchor="middle" x="332.17" y="-1016.7" font-family="Times New Roman,serif" font-size="14.00">Code.build.ps1</text>
</g>
<g id="clust2" class="cluster">
<title>cluster_1</title>
<polygon fill="none" stroke="black" stroke-dasharray="1,5" points="353.94,-8 353.94,-193 767.25,-193 767.25,-8 353.94,-8"/>
<text xml:space="preserve" text-anchor="middle" x="560.6" y="-175.7" font-family="Times New Roman,serif" font-size="14.00">Docs.build.ps1</text>
</g>
<g id="clust3" class="cluster">
<title>cluster_2</title>
<polygon fill="none" stroke="black" stroke-dasharray="1,5" points="343.71,-1042 343.71,-1335 789.37,-1335 789.37,-1042 343.71,-1042"/>
<text xml:space="preserve" text-anchor="middle" x="566.54" y="-1317.7" font-family="Times New Roman,serif" font-size="14.00">FarNet.build.ps1</text>
</g>
<g id="clust4" class="cluster">
<title>cluster_3</title>
<polygon fill="none" stroke="black" stroke-dasharray="1,5" points="517.75,-849 517.75,-1034 645.5,-1034 645.5,-849 517.75,-849"/>
<text xml:space="preserve" text-anchor="middle" x="581.62" y="-1016.7" font-family="Times New Roman,serif" font-size="14.00">FarNetApi.build.ps1</text>
</g>
<g id="clust5" class="cluster">
<title>cluster_4</title>
<polygon fill="none" stroke="black" stroke-dasharray="1,5" points="515.12,-656 515.12,-841 648.12,-841 648.12,-656 515.12,-656"/>
<text xml:space="preserve" text-anchor="middle" x="581.62" y="-823.7" font-family="Times New Roman,serif" font-size="14.00">FarNetMan.build.ps1</text>
</g>
<g id="clust6" class="cluster">
<title>cluster_5</title>
<polygon fill="none" stroke="black" stroke-dasharray="1,5" points="349.85,-332 349.85,-625 785.25,-625 785.25,-332 349.85,-332"/>
<text xml:space="preserve" text-anchor="middle" x="567.55" y="-607.7" font-family="Times New Roman,serif" font-size="14.00">PowerShellFar.build.ps1</text>
</g>
<g id="clust7" class="cluster">
<title>cluster_6</title>
<polygon fill="none" stroke="black" stroke-dasharray="1,5" points="8,-8 8,-625 295.09,-625 295.09,-8 8,-8"/>
<text xml:space="preserve" text-anchor="middle" x="151.55" y="-607.7" font-family="Times New Roman,serif" font-size="14.00">ReleaseFarNet.build.ps1</text>
</g>
<!-- 26 -->
<g id="node1" class="node">
<title>26</title>
<g id="a_node1"><a xlink:title="Uninstall and clean.">
<polygon fill="none" stroke="black" points="272.55,-677 204.05,-677 204.05,-641 272.55,-641 272.55,-677"/>
<text xml:space="preserve" text-anchor="middle" x="238.3" y="-653.95" font-family="Times New Roman,serif" font-size="14.00">GH::reset</text>
</a>
</g>
</g>
<!-- 27 -->
<g id="node2" class="node">
<title>27</title>
<g id="a_node2"><a xlink:title="Remove temp files.">
<polygon fill="none" stroke="black" points="274.05,-785 202.55,-785 202.55,-749 274.05,-749 274.05,-785"/>
<text xml:space="preserve" text-anchor="middle" x="238.3" y="-761.95" font-family="Times New Roman,serif" font-size="14.00">GH::clean</text>
</a>
</g>
</g>
<!-- 6 -->
<g id="node16" class="node">
<title>6</title>
<g id="a_node16"><a xlink:title="FN::clean">
<polygon fill="none" stroke="black" points="445.87,-1086 376.62,-1086 376.62,-1050 445.87,-1050 445.87,-1086"/>
<text xml:space="preserve" text-anchor="middle" x="411.25" y="-1062.95" font-family="Times New Roman,serif" font-size="14.00">FN::clean</text>
</a>
</g>
</g>
<!-- 27&#45;&gt;6 -->
<g id="edge17" class="edge">
<title>27&#45;&gt;6</title>
<g id="a_edge17"><a xlink:title="GH::clean &#45;&gt; FN::clean">
<path fill="none" stroke="black" d="M274.49,-775.98C283.9,-780.02 293.17,-785.79 299.37,-794 365.49,-881.43 267.47,-951.95 335.37,-1038 342.93,-1047.58 354.02,-1054.11 365.36,-1058.57"/>
<polygon fill="black" stroke="black" points="364.18,-1061.86 374.77,-1061.74 366.42,-1055.23 364.18,-1061.86"/>
</a>
</g>
</g>
<!-- 16 -->
<g id="node32" class="node">
<title>16</title>
<g id="a_node32"><a xlink:title="PS::clean">
<polygon fill="none" stroke="black" points="444.75,-484 377.75,-484 377.75,-448 444.75,-448 444.75,-484"/>
<text xml:space="preserve" text-anchor="middle" x="411.25" y="-460.95" font-family="Times New Roman,serif" font-size="14.00">PS::clean</text>
</a>
</g>
</g>
<!-- 27&#45;&gt;16 -->
<g id="edge18" class="edge">
<title>27&#45;&gt;16</title>
<g id="a_edge18"><a xlink:title="GH::clean &#45;&gt; PS::clean">
<path fill="none" stroke="black" d="M274.5,-758.03C283.91,-753.99 293.17,-748.21 299.37,-740 366.21,-651.45 265.21,-578.93 335.37,-493 343.27,-483.33 354.92,-477.12 366.69,-473.14"/>
<polygon fill="black" stroke="black" points="367.32,-476.6 375.97,-470.48 365.39,-469.87 367.32,-476.6"/>
</a>
</g>
</g>
<!-- 28 -->
<g id="node3" class="node">
<title>28</title>
<g id="a_node3"><a xlink:title="Generate or update meta files.">
<polygon fill="none" stroke="black" points="440.25,-731 376.25,-731 376.25,-695 446.25,-695 446.25,-725 440.25,-731"/>
<polyline fill="none" stroke="black" points="440.25,-731 440.25,-725"/>
<polyline fill="none" stroke="black" points="446.25,-725 440.25,-725"/>
<text xml:space="preserve" text-anchor="middle" x="411.25" y="-707.95" font-family="Times New Roman,serif" font-size="14.00">GH::meta</text>
</a>
</g>
</g>
<!-- 29 -->
<g id="node4" class="node">
<title>29</title>
<g id="a_node4"><a xlink:title="Build projects and PSF help.">
<polygon fill="none" stroke="black" points="273.67,-731 202.92,-731 202.92,-695 273.67,-695 273.67,-731"/>
<text xml:space="preserve" text-anchor="middle" x="238.3" y="-707.95" font-family="Times New Roman,serif" font-size="14.00">GH::build</text>
</a>
</g>
</g>
<!-- 29&#45;&gt;28 -->
<g id="edge19" class="edge">
<title>29&#45;&gt;28</title>
<g id="a_edge19"><a xlink:title="GH::build &#45;&gt; GH::meta">
<path fill="none" stroke="black" d="M273.89,-713C300.05,-713 336.19,-713 364.7,-713"/>
<polygon fill="black" stroke="black" points="364.48,-716.5 374.48,-713 364.48,-709.5 364.48,-716.5"/>
</a>
</g>
</g>
<!-- 19 -->
<g id="node35" class="node">
<title>19</title>
<g id="a_node35"><a xlink:title="PS::markdown">
<polygon fill="none" stroke="black" points="777.25,-450 680.25,-450 680.25,-414 777.25,-414 777.25,-450"/>
<text xml:space="preserve" text-anchor="middle" x="728.75" y="-426.95" font-family="Times New Roman,serif" font-size="14.00">PS::markdown</text>
</a>
</g>
</g>
<!-- 29&#45;&gt;19 -->
<g id="edge21" class="edge">
<title>29&#45;&gt;19</title>
<g id="a_edge21"><a xlink:title="GH::build &#45;&gt; PS::markdown">
<path fill="none" stroke="black" d="M274.1,-704.46C283.73,-700.42 293.22,-694.53 299.37,-686 345.75,-621.68 276.54,-384.17 335.37,-331 438.6,-237.71 523.48,-283.17 648.12,-345 674.61,-358.14 696.54,-384.13 710.64,-404.29"/>
<polygon fill="black" stroke="black" points="707.59,-406.04 716.07,-412.39 713.41,-402.13 707.59,-406.04"/>
</a>
</g>
</g>
<!-- 22 -->
<g id="node38" class="node">
<title>22</title>
<g id="a_node38"><a xlink:title="PS::help">
<polygon fill="none" stroke="black" points="436.12,-376 380.37,-376 380.37,-340 442.12,-340 442.12,-370 436.12,-376"/>
<polyline fill="none" stroke="black" points="436.12,-376 436.12,-370"/>
<polyline fill="none" stroke="black" points="442.12,-370 436.12,-370"/>
<text xml:space="preserve" text-anchor="middle" x="411.25" y="-352.95" font-family="Times New Roman,serif" font-size="14.00">PS::help</text>
</a>
</g>
</g>
<!-- 29&#45;&gt;22 -->
<g id="edge20" class="edge">
<title>29&#45;&gt;22</title>
<g id="a_edge20"><a xlink:title="GH::build &#45;&gt; PS::help">
<path fill="none" stroke="black" d="M274,-704.39C283.63,-700.35 293.14,-694.48 299.37,-686 379.16,-577.43 251.51,-490.45 335.37,-385 343.69,-374.54 356.4,-368.13 369.01,-364.21"/>
<polygon fill="black" stroke="black" points="369.68,-367.65 378.48,-361.74 367.92,-360.87 369.68,-367.65"/>
</a>
</g>
</g>
<!-- 30 -->
<g id="node5" class="node">
<title>30</title>
<g id="a_node5"><a xlink:title="Build and install API docs.">
<polygon fill="none" stroke="black" points="272.17,-839 204.42,-839 204.42,-803 272.17,-803 272.17,-839"/>
<text xml:space="preserve" text-anchor="middle" x="238.3" y="-815.95" font-family="Times New Roman,serif" font-size="14.00">GH::docs</text>
</a>
</g>
</g>
<!-- 31 -->
<g id="node6" class="node">
<title>31</title>
<g id="a_node6"><a xlink:title="Remove files from FarHome.">
<ellipse fill="none" stroke="black" cx="238.3" cy="-929" rx="61.08" ry="18"/>
<text xml:space="preserve" text-anchor="middle" x="238.3" y="-923.95" font-family="Times New Roman,serif" font-size="14.00">GH::uninstall</text>
</a>
</g>
</g>
<!-- 8 -->
<g id="node18" class="node">
<title>8</title>
<g id="a_node18"><a xlink:title="FN::uninstall">
<ellipse fill="none" stroke="black" cx="411.25" cy="-1122" rx="59.54" ry="18"/>
<text xml:space="preserve" text-anchor="middle" x="411.25" y="-1116.95" font-family="Times New Roman,serif" font-size="14.00">FN::uninstall</text>
</a>
</g>
</g>
<!-- 31&#45;&gt;8 -->
<g id="edge22" class="edge">
<title>31&#45;&gt;8</title>
<g id="a_edge22"><a xlink:title="GH::uninstall &#45;&gt; FN::uninstall">
<path fill="none" stroke="black" d="M281.41,-942.01C288.16,-945.64 294.51,-950.23 299.37,-956 340.53,-1004.77 292.39,-1047.83 335.37,-1095 339.79,-1099.84 345.13,-1103.82 350.91,-1107.08"/>
<polygon fill="black" stroke="black" points="349.08,-1110.08 359.61,-1111.27 352.12,-1103.77 349.08,-1110.08"/>
</a>
</g>
</g>
<!-- 18 -->
<g id="node34" class="node">
<title>18</title>
<g id="a_node34"><a xlink:title="PS::uninstall">
<polygon fill="none" stroke="black" points="453.75,-538 368.75,-538 368.75,-502 453.75,-502 453.75,-538"/>
<text xml:space="preserve" text-anchor="middle" x="411.25" y="-514.95" font-family="Times New Roman,serif" font-size="14.00">PS::uninstall</text>
</a>
</g>
</g>
<!-- 31&#45;&gt;18 -->
<g id="edge23" class="edge">
<title>31&#45;&gt;18</title>
<g id="a_edge23"><a xlink:title="GH::uninstall &#45;&gt; PS::uninstall">
<path fill="none" stroke="black" d="M282.76,-916.24C289.2,-912.59 295.09,-907.94 299.37,-902 392.13,-773.37 237.78,-672 335.37,-547 341.18,-539.57 349.21,-534.18 357.87,-530.27"/>
<polygon fill="black" stroke="black" points="359.1,-533.55 367.22,-526.74 356.62,-527 359.1,-533.55"/>
</a>
</g>
</g>
<!-- 32 -->
<g id="node7" class="node">
<title>32</title>
<g id="a_node7"><a xlink:title="Make the NuGet packages at $Home.">
<polygon fill="none" stroke="black" points="274.8,-1001 201.8,-1001 201.8,-965 274.8,-965 274.8,-1001"/>
<text xml:space="preserve" text-anchor="middle" x="238.3" y="-977.95" font-family="Times New Roman,serif" font-size="14.00">GH::nuget</text>
</a>
</g>
</g>
<!-- 14 -->
<g id="node24" class="node">
<title>14</title>
<g id="a_node24"><a xlink:title="FN::nuget">
<polygon fill="none" stroke="black" points="446.62,-1248 375.87,-1248 375.87,-1212 446.62,-1212 446.62,-1248"/>
<text xml:space="preserve" text-anchor="middle" x="411.25" y="-1224.95" font-family="Times New Roman,serif" font-size="14.00">FN::nuget</text>
</a>
</g>
</g>
<!-- 32&#45;&gt;14 -->
<g id="edge24" class="edge">
<title>32&#45;&gt;14</title>
<g id="a_edge24"><a xlink:title="GH::nuget &#45;&gt; FN::nuget">
<path fill="none" stroke="black" d="M242.29,-1001.48C249.99,-1043.28 274.38,-1145.88 335.37,-1203 343.53,-1210.64 354.01,-1216.15 364.53,-1220.11"/>
<polygon fill="black" stroke="black" points="363.38,-1223.42 373.98,-1223.23 365.58,-1216.77 363.38,-1223.42"/>
</a>
</g>
</g>
<!-- 25 -->
<g id="node41" class="node">
<title>25</title>
<g id="a_node41"><a xlink:title="PS::nuget">
<polygon fill="none" stroke="black" points="445.5,-592 377,-592 377,-556 445.5,-556 445.5,-592"/>
<text xml:space="preserve" text-anchor="middle" x="411.25" y="-568.95" font-family="Times New Roman,serif" font-size="14.00">PS::nuget</text>
</a>
</g>
</g>
<!-- 32&#45;&gt;25 -->
<g id="edge25" class="edge">
<title>32&#45;&gt;25</title>
<g id="a_edge25"><a xlink:title="GH::nuget &#45;&gt; PS::nuget">
<path fill="none" stroke="black" d="M275,-974.03C284.3,-970 293.39,-964.23 299.37,-956 385.4,-837.77 262.29,-755.63 335.37,-629 342.96,-615.86 355.07,-604.96 367.36,-596.42"/>
<polygon fill="black" stroke="black" points="368.97,-599.55 375.46,-591.17 365.16,-593.67 368.97,-599.55"/>
</a>
</g>
</g>
<!-- 33 -->
<g id="node8" class="node">
<title>33</title>
<g id="a_node8"><a xlink:title="Build all modules.">
<polygon fill="none" stroke="black" points="283.05,-893 193.55,-893 193.55,-857 283.05,-857 283.05,-893"/>
<text xml:space="preserve" text-anchor="middle" x="238.3" y="-869.95" font-family="Times New Roman,serif" font-size="14.00">GH::modules</text>
</a>
</g>
</g>
<!-- 34 -->
<g id="node9" class="node">
<title>34</title>
<g id="a_node9"><a xlink:title="Ensure Help, to test by Test&#45;Help&#45;.ps1">
<polygon fill="none" stroke="black" points="487.12,-893 335.37,-893 335.37,-857 487.12,-857 487.12,-893"/>
<text xml:space="preserve" text-anchor="middle" x="411.25" y="-869.95" font-family="Times New Roman,serif" font-size="14.00">GH::buildFarDescription</text>
</a>
</g>
</g>
<!-- 33&#45;&gt;34 -->
<g id="edge26" class="edge">
<title>33&#45;&gt;34</title>
<g id="a_edge26"><a xlink:title="GH::modules &#45;&gt; GH::buildFarDescription">
<path fill="none" stroke="black" d="M283.32,-875C295.81,-875 309.86,-875 323.94,-875"/>
<polygon fill="black" stroke="black" points="323.69,-878.5 333.69,-875 323.69,-871.5 323.69,-878.5"/>
</a>
</g>
</g>
<!-- 35 -->
<g id="node10" class="node">
<title>35</title>
<g id="a_node10"><a xlink:title="DC::build">
<polygon fill="none" stroke="black" points="616.12,-160 546.12,-160 546.12,-124 616.12,-124 616.12,-160"/>
<text xml:space="preserve" text-anchor="middle" x="581.12" y="-136.95" font-family="Times New Roman,serif" font-size="14.00">DC::build</text>
</a>
</g>
</g>
<!-- 39 -->
<g id="node14" class="node">
<title>39</title>
<g id="a_node14"><a xlink:title="DC::test">
<polygon fill="none" stroke="black" points="759.25,-160 698.25,-160 698.25,-124 759.25,-124 759.25,-160"/>
<text xml:space="preserve" text-anchor="middle" x="728.75" y="-136.95" font-family="Times New Roman,serif" font-size="14.00">DC::test</text>
</a>
</g>
</g>
<!-- 35&#45;&gt;39 -->
<g id="edge27" class="edge">
<title>35&#45;&gt;39</title>
<g id="a_edge27"><a xlink:title="DC::build &#45;&gt; DC::test">
<path fill="none" stroke="black" d="M616.27,-142C637.22,-142 664.18,-142 686.35,-142"/>
<polygon fill="black" stroke="black" points="686.26,-145.5 696.26,-142 686.26,-138.5 686.26,-145.5"/>
</a>
</g>
</g>
<!-- 36 -->
<g id="node11" class="node">
<title>36</title>
<g id="a_node11"><a xlink:title="DC::install">
<polygon fill="none" stroke="black" points="618.75,-52 543.5,-52 543.5,-16 618.75,-16 618.75,-52"/>
<text xml:space="preserve" text-anchor="middle" x="581.12" y="-28.95" font-family="Times New Roman,serif" font-size="14.00">DC::install</text>
</a>
</g>
</g>
<!-- 37 -->
<g id="node12" class="node">
<title>37</title>
<g id="a_node12"><a xlink:title="DC::clean">
<polygon fill="none" stroke="black" points="616.5,-106 545.75,-106 545.75,-70 616.5,-70 616.5,-106"/>
<text xml:space="preserve" text-anchor="middle" x="581.12" y="-82.95" font-family="Times New Roman,serif" font-size="14.00">DC::clean</text>
</a>
</g>
</g>
<!-- 38 -->
<g id="node13" class="node">
<title>38</title>
<g id="a_node13"><a xlink:title="DC::make">
<ellipse fill="none" stroke="black" cx="411.25" cy="-88" rx="49.3" ry="18"/>
<text xml:space="preserve" text-anchor="middle" x="411.25" y="-82.95" font-family="Times New Roman,serif" font-size="14.00">DC::make</text>
</a>
</g>
</g>
<!-- 38&#45;&gt;35 -->
<g id="edge28" class="edge">
<title>38&#45;&gt;35</title>
<g id="a_edge28"><a xlink:title="DC::make &#45;&gt; DC::build">
<path fill="none" stroke="black" d="M449.09,-99.85C474.37,-107.98 508.07,-118.82 534.97,-127.48"/>
<polygon fill="black" stroke="black" points="533.63,-130.72 544.22,-130.45 535.77,-124.06 533.63,-130.72"/>
</a>
</g>
</g>
<!-- 38&#45;&gt;36 -->
<g id="edge29" class="edge">
<title>38&#45;&gt;36</title>
<g id="a_edge29"><a xlink:title="DC::make &#45;&gt; DC::install">
<path fill="none" stroke="black" d="M449.09,-76.15C473.5,-68.3 505.76,-57.92 532.16,-49.43"/>
<polygon fill="black" stroke="black" points="533.19,-52.77 541.64,-46.38 531.05,-46.11 533.19,-52.77"/>
</a>
</g>
</g>
<!-- 38&#45;&gt;37 -->
<g id="edge30" class="edge">
<title>38&#45;&gt;37</title>
<g id="a_edge30"><a xlink:title="DC::make &#45;&gt; DC::clean">
<path fill="none" stroke="black" d="M460.81,-88C483.81,-88 511.16,-88 533.87,-88"/>
<polygon fill="black" stroke="black" points="533.75,-91.5 543.75,-88 533.75,-84.5 533.75,-91.5"/>
</a>
</g>
</g>
<!-- 40 -->
<g id="node15" class="node">
<title>40</title>
<g id="a_node15"><a xlink:title="DC::run">
<polygon fill="none" stroke="black" points="441.37,-160 381.12,-160 381.12,-124 441.37,-124 441.37,-160"/>
<text xml:space="preserve" text-anchor="middle" x="411.25" y="-136.95" font-family="Times New Roman,serif" font-size="14.00">DC::run</text>
</a>
</g>
</g>
<!-- 0 -->
<g id="node26" class="node">
<title>0</title>
<g id="a_node26"><a xlink:title="FA::clean">
<polygon fill="none" stroke="black" points="615.37,-893 546.87,-893 546.87,-857 615.37,-857 615.37,-893"/>
<text xml:space="preserve" text-anchor="middle" x="581.12" y="-869.95" font-family="Times New Roman,serif" font-size="14.00">FA::clean</text>
</a>
</g>
</g>
<!-- 6&#45;&gt;0 -->
<g id="edge1" class="edge">
<title>6&#45;&gt;0</title>
<g id="a_edge1"><a xlink:title="FN::clean &#45;&gt; FA::clean">
<path fill="none" stroke="black" d="M446.06,-1064.02C463.3,-1060.19 483.12,-1052.7 495.12,-1038 533.76,-990.68 477.59,-950.21 515.12,-902 520.5,-895.09 527.96,-889.94 535.91,-886.1"/>
<polygon fill="black" stroke="black" points="537.18,-889.36 545.11,-882.34 534.53,-882.88 537.18,-889.36"/>
</a>
</g>
</g>
<!-- 3 -->
<g id="node29" class="node">
<title>3</title>
<g id="a_node29"><a xlink:title="FM::clean">
<polygon fill="none" stroke="black" points="617.25,-700 545,-700 545,-664 617.25,-664 617.25,-700"/>
<text xml:space="preserve" text-anchor="middle" x="581.12" y="-676.95" font-family="Times New Roman,serif" font-size="14.00">FM::clean</text>
</a>
</g>
</g>
<!-- 6&#45;&gt;3 -->
<g id="edge2" class="edge">
<title>6&#45;&gt;3</title>
<g id="a_edge2"><a xlink:title="FN::clean &#45;&gt; FM::clean">
<path fill="none" stroke="black" d="M446.14,-1064.51C463.64,-1060.83 483.67,-1053.32 495.12,-1038 538.99,-979.34 472.63,-768.66 515.12,-709 519.95,-702.23 526.8,-697.15 534.27,-693.34"/>
<polygon fill="black" stroke="black" points="535.47,-696.63 543.29,-689.49 532.72,-690.19 535.47,-696.63"/>
</a>
</g>
</g>
<!-- 7 -->
<g id="node17" class="node">
<title>7</title>
<g id="a_node17"><a xlink:title="FN::install">
<ellipse fill="none" stroke="black" cx="411.25" cy="-1176" rx="50.33" ry="18"/>
<text xml:space="preserve" text-anchor="middle" x="411.25" y="-1170.95" font-family="Times New Roman,serif" font-size="14.00">FN::install</text>
</a>
</g>
</g>
<!-- 9 -->
<g id="node19" class="node">
<title>9</title>
<g id="a_node19"><a xlink:title="FN::helpHLF">
<polygon fill="none" stroke="black" points="619.87,-1194 536.37,-1194 536.37,-1158 625.87,-1158 625.87,-1188 619.87,-1194"/>
<polyline fill="none" stroke="black" points="619.87,-1194 619.87,-1188"/>
<polyline fill="none" stroke="black" points="625.87,-1188 619.87,-1188"/>
<text xml:space="preserve" text-anchor="middle" x="581.12" y="-1170.95" font-family="Times New Roman,serif" font-size="14.00">FN::helpHLF</text>
</a>
</g>
</g>
<!-- 7&#45;&gt;9 -->
<g id="edge5" class="edge">
<title>7&#45;&gt;9</title>
<g id="a_edge5"><a xlink:title="FN::install &#45;&gt; FN::helpHLF">
<path fill="none" stroke="black" d="M461.71,-1176C481.53,-1176 504.45,-1176 524.82,-1176"/>
<polygon fill="black" stroke="black" points="524.64,-1179.5 534.64,-1176 524.64,-1172.5 524.64,-1179.5"/>
</a>
</g>
</g>
<!-- 1 -->
<g id="node27" class="node">
<title>1</title>
<g id="a_node27"><a xlink:title="FA::install">
<ellipse fill="none" stroke="black" cx="581.12" cy="-983" rx="49.82" ry="18"/>
<text xml:space="preserve" text-anchor="middle" x="581.12" y="-977.95" font-family="Times New Roman,serif" font-size="14.00">FA::install</text>
</a>
</g>
</g>
<!-- 7&#45;&gt;1 -->
<g id="edge3" class="edge">
<title>7&#45;&gt;1</title>
<g id="a_edge3"><a xlink:title="FN::install &#45;&gt; FA::install">
<path fill="none" stroke="black" d="M459.01,-1170C472.41,-1166.07 485.88,-1159.61 495.12,-1149 528.07,-1111.22 490.07,-1081.42 515.12,-1038 522.53,-1025.17 534.1,-1013.96 545.43,-1005.06"/>
<polygon fill="black" stroke="black" points="547.21,-1008.1 553.17,-999.34 543.05,-1002.47 547.21,-1008.1"/>
</a>
</g>
</g>
<!-- 4 -->
<g id="node30" class="node">
<title>4</title>
<g id="a_node30"><a xlink:title="FM::install">
<polygon fill="none" stroke="black" points="619.5,-808 542.75,-808 542.75,-772 619.5,-772 619.5,-808"/>
<text xml:space="preserve" text-anchor="middle" x="581.12" y="-784.95" font-family="Times New Roman,serif" font-size="14.00">FM::install</text>
</a>
</g>
</g>
<!-- 7&#45;&gt;4 -->
<g id="edge4" class="edge">
<title>7&#45;&gt;4</title>
<g id="a_edge4"><a xlink:title="FN::install &#45;&gt; FM::install">
<path fill="none" stroke="black" d="M459.75,-1170.61C473.19,-1166.71 486.49,-1160.11 495.12,-1149 536.67,-1095.55 484.64,-905.45 515.12,-845 520.88,-833.58 530.17,-823.6 539.95,-815.39"/>
<polygon fill="black" stroke="black" points="542.05,-818.19 547.78,-809.28 537.75,-812.67 542.05,-818.19"/>
</a>
</g>
</g>
<!-- 2 -->
<g id="node28" class="node">
<title>2</title>
<g id="a_node28"><a xlink:title="FA::uninstall">
<polygon fill="none" stroke="black" points="624.37,-947 537.87,-947 537.87,-911 624.37,-911 624.37,-947"/>
<text xml:space="preserve" text-anchor="middle" x="581.12" y="-923.95" font-family="Times New Roman,serif" font-size="14.00">FA::uninstall</text>
</a>
</g>
</g>
<!-- 8&#45;&gt;2 -->
<g id="edge6" class="edge">
<title>8&#45;&gt;2</title>
<g id="a_edge6"><a xlink:title="FN::uninstall &#45;&gt; FA::uninstall">
<path fill="none" stroke="black" d="M465.28,-1114.25C476.59,-1110.22 487.43,-1104.15 495.12,-1095 535.3,-1047.24 476.86,-1005.31 515.12,-956 518.64,-951.47 523.05,-947.69 527.91,-944.55"/>
<polygon fill="black" stroke="black" points="529.24,-947.81 536.36,-939.96 525.9,-941.66 529.24,-947.81"/>
</a>
</g>
</g>
<!-- 5 -->
<g id="node31" class="node">
<title>5</title>
<g id="a_node31"><a xlink:title="FM::uninstall">
<polygon fill="none" stroke="black" points="626.25,-754 536,-754 536,-718 626.25,-718 626.25,-754"/>
<text xml:space="preserve" text-anchor="middle" x="581.12" y="-730.95" font-family="Times New Roman,serif" font-size="14.00">FM::uninstall</text>
</a>
</g>
</g>
<!-- 8&#45;&gt;5 -->
<g id="edge7" class="edge">
<title>8&#45;&gt;5</title>
<g id="a_edge7"><a xlink:title="FN::uninstall &#45;&gt; FM::uninstall">
<path fill="none" stroke="black" d="M465.83,-1114.69C477.12,-1110.65 487.81,-1104.46 495.12,-1095 540.32,-1036.52 472.26,-823.21 515.12,-763 518.07,-758.86 521.78,-755.35 525.93,-752.37"/>
<polygon fill="black" stroke="black" points="527.43,-755.55 534.26,-747.46 523.87,-749.52 527.43,-755.55"/>
</a>
</g>
</g>
<!-- 10 -->
<g id="node20" class="node">
<title>10</title>
<g id="a_node20"><a xlink:title="FN::markdown">
<polygon fill="none" stroke="black" points="778.37,-1248 679.12,-1248 679.12,-1212 778.37,-1212 778.37,-1248"/>
<text xml:space="preserve" text-anchor="middle" x="728.75" y="-1224.95" font-family="Times New Roman,serif" font-size="14.00">FN::markdown</text>
</a>
</g>
</g>
<!-- 11 -->
<g id="node21" class="node">
<title>11</title>
<g id="a_node21"><a xlink:title="Make Win32 files.">
<polygon fill="none" stroke="black" points="781.37,-1302 676.12,-1302 676.12,-1266 781.37,-1266 781.37,-1302"/>
<text xml:space="preserve" text-anchor="middle" x="728.75" y="-1278.95" font-family="Times New Roman,serif" font-size="14.00">FN::buildWin32</text>
</a>
</g>
</g>
<!-- 12 -->
<g id="node22" class="node">
<title>12</title>
<g id="a_node22"><a xlink:title="FN::package">
<polygon fill="none" stroke="black" points="623.62,-1302 538.62,-1302 538.62,-1266 623.62,-1266 623.62,-1302"/>
<text xml:space="preserve" text-anchor="middle" x="581.12" y="-1278.95" font-family="Times New Roman,serif" font-size="14.00">FN::package</text>
</a>
</g>
</g>
<!-- 12&#45;&gt;10 -->
<g id="edge9" class="edge">
<title>12&#45;&gt;10</title>
<g id="a_edge9"><a xlink:title="FN::package &#45;&gt; FN::markdown">
<path fill="none" stroke="black" d="M623.85,-1268.53C637.65,-1263.41 653.28,-1257.61 668.15,-1252.1"/>
<polygon fill="black" stroke="black" points="669.23,-1255.43 677.39,-1248.68 666.79,-1248.87 669.23,-1255.43"/>
</a>
</g>
</g>
<!-- 12&#45;&gt;11 -->
<g id="edge8" class="edge">
<title>12&#45;&gt;11</title>
<g id="a_edge8"><a xlink:title="FN::package &#45;&gt; FN::buildWin32">
<path fill="none" stroke="black" d="M623.85,-1284C636.46,-1284 650.6,-1284 664.29,-1284"/>
<polygon fill="black" stroke="black" points="664.12,-1287.5 674.12,-1284 664.12,-1280.5 664.12,-1287.5"/>
</a>
</g>
</g>
<!-- 13 -->
<g id="node23" class="node">
<title>13</title>
<g id="a_node23"><a xlink:title="FN::version">
<polygon fill="none" stroke="black" points="621.37,-1248 540.87,-1248 540.87,-1212 621.37,-1212 621.37,-1248"/>
<text xml:space="preserve" text-anchor="middle" x="581.12" y="-1224.95" font-family="Times New Roman,serif" font-size="14.00">FN::version</text>
</a>
</g>
</g>
<!-- 14&#45;&gt;12 -->
<g id="edge10" class="edge">
<title>14&#45;&gt;12</title>
<g id="a_edge10"><a xlink:title="FN::nuget &#45;&gt; FN::package">
<path fill="none" stroke="black" d="M447.03,-1241.19C470.23,-1248.65 501.15,-1258.6 527.35,-1267.02"/>
<polygon fill="black" stroke="black" points="526.22,-1270.34 536.81,-1270.07 528.37,-1263.67 526.22,-1270.34"/>
</a>
</g>
</g>
<!-- 14&#45;&gt;13 -->
<g id="edge11" class="edge">
<title>14&#45;&gt;13</title>
<g id="a_edge11"><a xlink:title="FN::nuget &#45;&gt; FN::version">
<path fill="none" stroke="black" d="M447.03,-1230C470.71,-1230 502.44,-1230 528.98,-1230"/>
<polygon fill="black" stroke="black" points="528.86,-1233.5 538.86,-1230 528.86,-1226.5 528.86,-1233.5"/>
</a>
</g>
</g>
<!-- 15 -->
<g id="node25" class="node">
<title>15</title>
<g id="a_node25"><a xlink:title="FN::test">
<polygon fill="none" stroke="black" points="441,-1302 381.5,-1302 381.5,-1266 441,-1266 441,-1302"/>
<text xml:space="preserve" text-anchor="middle" x="411.25" y="-1278.95" font-family="Times New Roman,serif" font-size="14.00">FN::test</text>
</a>
</g>
</g>
<!-- 17 -->
<g id="node33" class="node">
<title>17</title>
<g id="a_node33"><a xlink:title="PS::publish">
<ellipse fill="none" stroke="black" cx="411.25" cy="-412" rx="53.4" ry="18"/>
<text xml:space="preserve" text-anchor="middle" x="411.25" y="-406.95" font-family="Times New Roman,serif" font-size="14.00">PS::publish</text>
</a>
</g>
</g>
<!-- 20 -->
<g id="node36" class="node">
<title>20</title>
<g id="a_node36"><a xlink:title="PS::installBin">
<polygon fill="none" stroke="black" points="626.62,-390 535.62,-390 535.62,-354 626.62,-354 626.62,-390"/>
<text xml:space="preserve" text-anchor="middle" x="581.12" y="-366.95" font-family="Times New Roman,serif" font-size="14.00">PS::installBin</text>
</a>
</g>
</g>
<!-- 17&#45;&gt;20 -->
<g id="edge12" class="edge">
<title>17&#45;&gt;20</title>
<g id="a_edge12"><a xlink:title="PS::publish &#45;&gt; PS::installBin">
<path fill="none" stroke="black" d="M455.48,-401.7C476.42,-396.71 501.83,-390.66 524.22,-385.32"/>
<polygon fill="black" stroke="black" points="524.89,-388.76 533.81,-383.04 523.27,-381.95 524.89,-388.76"/>
</a>
</g>
</g>
<!-- 21 -->
<g id="node37" class="node">
<title>21</title>
<g id="a_node37"><a xlink:title="PS::installRes">
<polygon fill="none" stroke="black" points="627,-444 535.25,-444 535.25,-408 627,-408 627,-444"/>
<text xml:space="preserve" text-anchor="middle" x="581.12" y="-420.95" font-family="Times New Roman,serif" font-size="14.00">PS::installRes</text>
</a>
</g>
</g>
<!-- 17&#45;&gt;21 -->
<g id="edge13" class="edge">
<title>17&#45;&gt;21</title>
<g id="a_edge13"><a xlink:title="PS::publish &#45;&gt; PS::installRes">
<path fill="none" stroke="black" d="M463.53,-416.28C482.46,-417.86 504.02,-419.65 523.41,-421.27"/>
<polygon fill="black" stroke="black" points="523.08,-424.76 533.34,-422.1 523.66,-417.78 523.08,-424.76"/>
</a>
</g>
</g>
<!-- 23 -->
<g id="node39" class="node">
<title>23</title>
<g id="a_node39"><a xlink:title="PS::package">
<polygon fill="none" stroke="black" points="622.5,-525 539.75,-525 539.75,-489 622.5,-489 622.5,-525"/>
<text xml:space="preserve" text-anchor="middle" x="581.12" y="-501.95" font-family="Times New Roman,serif" font-size="14.00">PS::package</text>
</a>
</g>
</g>
<!-- 23&#45;&gt;19 -->
<g id="edge14" class="edge">
<title>23&#45;&gt;19</title>
<g id="a_edge14"><a xlink:title="PS::package &#45;&gt; PS::markdown">
<path fill="none" stroke="black" d="M617.75,-488.65C637.05,-478.71 661.13,-466.31 681.82,-455.65"/>
<polygon fill="black" stroke="black" points="683.35,-458.8 690.64,-451.11 680.15,-452.58 683.35,-458.8"/>
</a>
</g>
</g>
<!-- 24 -->
<g id="node40" class="node">
<title>24</title>
<g id="a_node40"><a xlink:title="PS::version">
<polygon fill="none" stroke="black" points="620.25,-592 542,-592 542,-556 620.25,-556 620.25,-592"/>
<text xml:space="preserve" text-anchor="middle" x="581.12" y="-568.95" font-family="Times New Roman,serif" font-size="14.00">PS::version</text>
</a>
</g>
</g>
<!-- 25&#45;&gt;23 -->
<g id="edge15" class="edge">
<title>25&#45;&gt;23</title>
<g id="a_edge15"><a xlink:title="PS::nuget &#45;&gt; PS::package">
<path fill="none" stroke="black" d="M445.66,-564.16C460.9,-559.41 479.09,-553.36 495.12,-547 507.8,-541.98 521.26,-535.97 533.64,-530.15"/>
<polygon fill="black" stroke="black" points="534.86,-533.45 542.38,-525.99 531.85,-527.13 534.86,-533.45"/>
</a>
</g>
</g>
<!-- 25&#45;&gt;24 -->
<g id="edge16" class="edge">
<title>25&#45;&gt;24</title>
<g id="a_edge16"><a xlink:title="PS::nuget &#45;&gt; PS::version">
<path fill="none" stroke="black" d="M445.82,-574C470.01,-574 503.07,-574 530.33,-574"/>
<polygon fill="black" stroke="black" points="530.11,-577.5 540.11,-574 530.11,-570.5 530.11,-577.5"/>
</a>
</g>
</g>
<!-- 41 -->
<g id="node42" class="node">
<title>41</title>
<g id="a_node42"><a xlink:title="setVersion">
<polygon fill="none" stroke="black" points="108.74,-52 42.49,-52 42.49,-16 114.74,-16 114.74,-46 108.74,-52"/>
<polyline fill="none" stroke="black" points="108.74,-52 108.74,-46"/>
<polyline fill="none" stroke="black" points="114.74,-46 108.74,-46"/>
<text xml:space="preserve" text-anchor="middle" x="78.61" y="-28.95" font-family="Times New Roman,serif" font-size="14.00">setVersion</text>
</a>
</g>
</g>
<!-- 42 -->
<g id="node43" class="node">
<title>42</title>
<g id="a_node43"><a xlink:title="chooseToPush">
<polygon fill="none" stroke="black" points="125.61,-106 31.61,-106 31.61,-70 125.61,-70 125.61,-106"/>
<text xml:space="preserve" text-anchor="middle" x="78.61" y="-82.95" font-family="Times New Roman,serif" font-size="14.00">chooseToPush</text>
</a>
</g>
</g>
<!-- 43 -->
<g id="node44" class="node">
<title>43</title>
<g id="a_node44"><a xlink:title="build">
<ellipse fill="none" stroke="black" cx="78.61" cy="-142" rx="29.86" ry="18"/>
<text xml:space="preserve" text-anchor="middle" x="78.61" y="-136.95" font-family="Times New Roman,serif" font-size="14.00">build</text>
</a>
</g>
</g>
<!-- 44 -->
<g id="node45" class="node">
<title>44</title>
<g id="a_node45"><a xlink:title="buildFarNet">
<polygon fill="none" stroke="black" points="272.92,-160 197.67,-160 197.67,-124 278.92,-124 278.92,-154 272.92,-160"/>
<polyline fill="none" stroke="black" points="272.92,-160 272.92,-154"/>
<polyline fill="none" stroke="black" points="278.92,-154 272.92,-154"/>
<text xml:space="preserve" text-anchor="middle" x="238.3" y="-136.95" font-family="Times New Roman,serif" font-size="14.00">buildFarNet</text>
</a>
</g>
</g>
<!-- 43&#45;&gt;44 -->
<g id="edge31" class="edge">
<title>43&#45;&gt;44</title>
<g id="a_edge31"><a xlink:title="build &#45;&gt; buildFarNet">
<path fill="none" stroke="black" d="M108.9,-142C130.53,-142 160.52,-142 186.08,-142"/>
<polygon fill="black" stroke="black" points="185.95,-145.5 195.95,-142 185.95,-138.5 185.95,-145.5"/>
</a>
</g>
</g>
<!-- 45 -->
<g id="node46" class="node">
<title>45</title>
<g id="a_node46"><a xlink:title="buildPsfHelp">
<polygon fill="none" stroke="black" points="275.92,-214 194.67,-214 194.67,-178 281.92,-178 281.92,-208 275.92,-214"/>
<polyline fill="none" stroke="black" points="275.92,-214 275.92,-208"/>
<polyline fill="none" stroke="black" points="281.92,-208 275.92,-208"/>
<text xml:space="preserve" text-anchor="middle" x="238.3" y="-190.95" font-family="Times New Roman,serif" font-size="14.00">buildPsfHelp</text>
</a>
</g>
</g>
<!-- 43&#45;&gt;45 -->
<g id="edge32" class="edge">
<title>43&#45;&gt;45</title>
<g id="a_edge32"><a xlink:title="build &#45;&gt; buildPsfHelp">
<path fill="none" stroke="black" d="M105.3,-150.8C126.47,-158.05 157.21,-168.57 183.7,-177.64"/>
<polygon fill="black" stroke="black" points="182.34,-180.88 192.94,-180.81 184.61,-174.26 182.34,-180.88"/>
</a>
</g>
</g>
<!-- 46 -->
<g id="node47" class="node">
<title>46</title>
<g id="a_node47"><a xlink:title="buildDocs">
<ellipse fill="none" stroke="black" cx="238.3" cy="-88" rx="48.79" ry="18"/>
<text xml:space="preserve" text-anchor="middle" x="238.3" y="-82.95" font-family="Times New Roman,serif" font-size="14.00">buildDocs</text>
</a>
</g>
</g>
<!-- 43&#45;&gt;46 -->
<g id="edge33" class="edge">
<title>43&#45;&gt;46</title>
<g id="a_edge33"><a xlink:title="build &#45;&gt; buildDocs">
<path fill="none" stroke="black" d="M105.3,-133.2C128.41,-125.29 162.93,-113.47 190.87,-103.9"/>
<polygon fill="black" stroke="black" points="191.85,-107.26 200.18,-100.71 189.59,-100.64 191.85,-107.26"/>
</a>
</g>
</g>
<!-- 46&#45;&gt;38 -->
<g id="edge34" class="edge">
<title>46&#45;&gt;38</title>
<g id="a_edge34"><a xlink:title="buildDocs &#45;&gt; DC::make">
<path fill="none" stroke="black" d="M287.37,-88C306.86,-88 329.59,-88 350.15,-88"/>
<polygon fill="black" stroke="black" points="350.13,-91.5 360.13,-88 350.13,-84.5 350.13,-91.5"/>
</a>
</g>
</g>
<!-- 47 -->
<g id="node48" class="node">
<title>47</title>
<g id="a_node48"><a xlink:title="nugetAndTest">
<polygon fill="none" stroke="black" points="118.49,-484 32.74,-484 32.74,-448 124.49,-448 124.49,-478 118.49,-484"/>
<polyline fill="none" stroke="black" points="118.49,-484 118.49,-478"/>
<polyline fill="none" stroke="black" points="124.49,-478 118.49,-478"/>
<text xml:space="preserve" text-anchor="middle" x="78.61" y="-460.95" font-family="Times New Roman,serif" font-size="14.00">nugetAndTest</text>
</a>
</g>
</g>
<!-- 47&#45;&gt;32 -->
<g id="edge35" class="edge">
<title>47&#45;&gt;32</title>
<g id="a_edge35"><a xlink:title="nugetAndTest &#45;&gt; GH::nuget">
<path fill="none" stroke="black" d="M124.69,-478.61C131.14,-482.27 137.01,-486.97 141.22,-493 200.19,-577.54 108.76,-872.52 169.22,-956 174.68,-963.54 182.59,-968.98 191.1,-972.89"/>
<polygon fill="black" stroke="black" points="189.64,-976.09 200.23,-976.42 192.16,-969.55 189.64,-976.09"/>
</a>
</g>
</g>
<!-- 48 -->
<g id="node49" class="node">
<title>48</title>
<g id="a_node49"><a xlink:title="testAll">
<polygon fill="none" stroke="black" points="99.61,-268 51.61,-268 51.61,-232 105.61,-232 105.61,-262 99.61,-268"/>
<polyline fill="none" stroke="black" points="99.61,-268 99.61,-262"/>
<polyline fill="none" stroke="black" points="105.61,-262 99.61,-262"/>
<text xml:space="preserve" text-anchor="middle" x="78.61" y="-244.95" font-family="Times New Roman,serif" font-size="14.00">testAll</text>
</a>
</g>
</g>
<!-- 49 -->
<g id="node50" class="node">
<title>49</title>
<g id="a_node50"><a xlink:title="pushPackages">
<ellipse fill="none" stroke="black" cx="78.61" cy="-304" rx="62.61" ry="18"/>
<text xml:space="preserve" text-anchor="middle" x="78.61" y="-298.95" font-family="Times New Roman,serif" font-size="14.00">pushPackages</text>
</a>
</g>
</g>
<!-- 50 -->
<g id="node51" class="node">
<title>50</title>
<g id="a_node51"><a xlink:title="commitSource">
<polygon fill="none" stroke="black" points="120.74,-376 30.49,-376 30.49,-340 126.74,-340 126.74,-370 120.74,-376"/>
<polyline fill="none" stroke="black" points="120.74,-376 120.74,-370"/>
<polyline fill="none" stroke="black" points="126.74,-370 120.74,-370"/>
<text xml:space="preserve" text-anchor="middle" x="78.61" y="-352.95" font-family="Times New Roman,serif" font-size="14.00">commitSource</text>
</a>
</g>
</g>
<!-- 51 -->
<g id="node52" class="node">
<title>51</title>
<g id="a_node52"><a xlink:title="pushSource">
<polygon fill="none" stroke="black" points="112.11,-430 39.11,-430 39.11,-394 118.11,-394 118.11,-424 112.11,-430"/>
<polyline fill="none" stroke="black" points="112.11,-430 112.11,-424"/>
<polyline fill="none" stroke="black" points="118.11,-424 112.11,-424"/>
<text xml:space="preserve" text-anchor="middle" x="78.61" y="-406.95" font-family="Times New Roman,serif" font-size="14.00">pushSource</text>
</a>
</g>
</g>
<!-- 52 -->
<g id="node53" class="node">
<title>52</title>
<g id="a_node53"><a xlink:title="clean">
<ellipse fill="none" stroke="black" cx="78.61" cy="-196" rx="30.37" ry="18"/>
<text xml:space="preserve" text-anchor="middle" x="78.61" y="-190.95" font-family="Times New Roman,serif" font-size="14.00">clean</text>
</a>
</g>
</g>
<!-- 52&#45;&gt;27 -->
<g id="edge36" class="edge">
<title>52&#45;&gt;27</title>
<g id="a_edge36"><a xlink:title="clean &#45;&gt; GH::clean">
<path fill="none" stroke="black" d="M107.81,-201.4C120.13,-205.28 133.51,-211.86 141.22,-223 206.75,-317.57 102.03,-646.6 169.22,-740 174.77,-747.7 182.86,-753.21 191.56,-757.15"/>
<polygon fill="black" stroke="black" points="190.31,-760.42 200.91,-760.68 192.79,-753.87 190.31,-760.42"/>
</a>
</g>
</g>
<!-- 53 -->
<g id="node54" class="node">
<title>53</title>
<g id="a_node54"><a xlink:title="zipFarDev">
<polygon fill="none" stroke="black" points="109.11,-538 42.11,-538 42.11,-502 115.11,-502 115.11,-532 109.11,-538"/>
<polyline fill="none" stroke="black" points="109.11,-538 109.11,-532"/>
<polyline fill="none" stroke="black" points="115.11,-532 109.11,-532"/>
<text xml:space="preserve" text-anchor="middle" x="78.61" y="-514.95" font-family="Times New Roman,serif" font-size="14.00">zipFarDev</text>
</a>
</g>
</g>
<!-- 54 -->
<g id="node55" class="node">
<title>54</title>
<g id="a_node55"><a xlink:title=".">
<ellipse fill="none" stroke="black" cx="78.61" cy="-574" rx="27" ry="18"/>
<text xml:space="preserve" text-anchor="middle" x="78.61" y="-568.95" font-family="Times New Roman,serif" font-size="14.00">.</text>
</a>
</g>
</g>
</g>
</svg>
