<?xml version="1.0" encoding="UTF-8" standalone="no"?>
<!DOCTYPE svg PUBLIC "-//W3C//DTD SVG 1.1//EN"
 "http://www.w3.org/Graphics/SVG/1.1/DTD/svg11.dtd">
<!-- Generated by graphviz version 13.0.0 (20250608.1624)
 -->
<!-- Pages: 1 -->
<svg width="467pt" height="368pt"
 viewBox="0.00 0.00 467.00 368.00" xmlns="http://www.w3.org/2000/svg" xmlns:xlink="http://www.w3.org/1999/xlink">
<g id="graph0" class="graph" transform="scale(1 1) rotate(0) translate(4 364)">
<polygon fill="white" stroke="none" points="-4,4 -4,-364 462.96,-364 462.96,4 -4,4"/>
<!-- 0 -->
<g id="node1" class="node">
<title>0</title>
<g id="a_node1"><a xlink:title="Convert markdown files to HTML.">
<polygon fill="none" stroke="black" points="458.96,-144 384.46,-144 384.46,-108 458.96,-108 458.96,-144"/>
<text xml:space="preserve" text-anchor="middle" x="421.71" y="-120.95" font-family="Times New Roman,serif" font-size="14.00">markdown</text>
</a>
</g>
</g>
<!-- 1 -->
<g id="node2" class="node">
<title>1</title>
<g id="a_node2"><a xlink:title="Remove temp files.">
<polygon fill="none" stroke="black" points="448.71,-360 394.71,-360 394.71,-324 448.71,-324 448.71,-360"/>
<text xml:space="preserve" text-anchor="middle" x="421.71" y="-336.95" font-family="Times New Roman,serif" font-size="14.00">clean</text>
</a>
</g>
</g>
<!-- 2 -->
<g id="node3" class="node">
<title>2</title>
<g id="a_node3"><a xlink:title="Build the PowerShell help file.">
<polygon fill="none" stroke="black" points="448.71,-198 394.71,-198 394.71,-162 448.71,-162 448.71,-198"/>
<text xml:space="preserve" text-anchor="middle" x="421.71" y="-174.95" font-family="Times New Roman,serif" font-size="14.00">help</text>
</a>
</g>
</g>
<!-- 3 -->
<g id="node4" class="node">
<title>3</title>
<g id="a_node4"><a xlink:title="Set $Script:Version.">
<polygon fill="none" stroke="black" points="449.59,-90 393.84,-90 393.84,-54 449.59,-54 449.59,-90"/>
<text xml:space="preserve" text-anchor="middle" x="421.71" y="-66.95" font-family="Times New Roman,serif" font-size="14.00">version</text>
</a>
</g>
</g>
<!-- 4 -->
<g id="node5" class="node">
<title>4</title>
<g id="a_node5"><a xlink:title="Make the module folder.">
<polygon fill="none" stroke="black" points="334.59,-144 277.34,-144 277.34,-108 334.59,-108 334.59,-144"/>
<text xml:space="preserve" text-anchor="middle" x="305.96" y="-120.95" font-family="Times New Roman,serif" font-size="14.00">module</text>
</a>
</g>
</g>
<!-- 4&#45;&gt;0 -->
<g id="edge2" class="edge">
<title>4&#45;&gt;0</title>
<g id="a_edge2"><a xlink:title="module &#45;&gt; markdown">
<path fill="none" stroke="black" d="M335.08,-126C346.58,-126 360.21,-126 373.17,-126"/>
<polygon fill="black" stroke="black" points="372.81,-129.5 382.81,-126 372.81,-122.5 372.81,-129.5"/>
</a>
</g>
</g>
<!-- 4&#45;&gt;2 -->
<g id="edge3" class="edge">
<title>4&#45;&gt;2</title>
<g id="a_edge3"><a xlink:title="module &#45;&gt; help">
<path fill="none" stroke="black" d="M335.08,-139.35C349.98,-146.42 368.44,-155.19 384.41,-162.77"/>
<polygon fill="black" stroke="black" points="382.58,-165.77 393.11,-166.9 385.58,-159.45 382.58,-165.77"/>
</a>
</g>
</g>
<!-- 4&#45;&gt;3 -->
<g id="edge1" class="edge">
<title>4&#45;&gt;3</title>
<g id="a_edge1"><a xlink:title="module &#45;&gt; version">
<path fill="none" stroke="black" d="M335.08,-112.65C349.76,-105.68 367.91,-97.07 383.71,-89.56"/>
<polygon fill="black" stroke="black" points="384.8,-92.92 392.33,-85.47 381.8,-86.6 384.8,-92.92"/>
</a>
</g>
</g>
<!-- 5 -->
<g id="node6" class="node">
<title>5</title>
<g id="a_node6"><a xlink:title="Make the NuGet package.">
<polygon fill="none" stroke="black" points="197.48,-117 143.48,-117 143.48,-81 197.48,-81 197.48,-117"/>
<text xml:space="preserve" text-anchor="middle" x="170.48" y="-93.95" font-family="Times New Roman,serif" font-size="14.00">nuget</text>
</a>
</g>
</g>
<!-- 5&#45;&gt;4 -->
<g id="edge4" class="edge">
<title>5&#45;&gt;4</title>
<g id="a_edge4"><a xlink:title="nuget &#45;&gt; module">
<path fill="none" stroke="black" d="M197.85,-104.33C217.3,-108.27 244.08,-113.68 265.99,-118.12"/>
<polygon fill="black" stroke="black" points="265.29,-121.55 275.78,-120.1 266.68,-114.68 265.29,-121.55"/>
</a>
</g>
</g>
<!-- 6 -->
<g id="node7" class="node">
<title>6</title>
<g id="a_node7"><a xlink:title="Push with a version tag.">
<polygon fill="none" stroke="black" points="348.46,-90 263.46,-90 263.46,-54 348.46,-54 348.46,-90"/>
<text xml:space="preserve" text-anchor="middle" x="305.96" y="-66.95" font-family="Times New Roman,serif" font-size="14.00">pushAndTag</text>
</a>
</g>
</g>
<!-- 6&#45;&gt;3 -->
<g id="edge5" class="edge">
<title>6&#45;&gt;3</title>
<g id="a_edge5"><a xlink:title="pushAndTag &#45;&gt; version">
<path fill="none" stroke="black" d="M348.67,-72C359.66,-72 371.47,-72 382.27,-72"/>
<polygon fill="black" stroke="black" points="382.01,-75.5 392.01,-72 382.01,-68.5 382.01,-75.5"/>
</a>
</g>
</g>
<!-- 7 -->
<g id="node8" class="node">
<title>7</title>
<g id="a_node8"><a xlink:title="Create release from tag.">
<polygon fill="none" stroke="black" points="346.21,-36 265.71,-36 265.71,0 346.21,0 346.21,-36"/>
<text xml:space="preserve" text-anchor="middle" x="305.96" y="-12.95" font-family="Times New Roman,serif" font-size="14.00">newRelease</text>
</a>
</g>
</g>
<!-- 7&#45;&gt;3 -->
<g id="edge6" class="edge">
<title>7&#45;&gt;3</title>
<g id="a_edge6"><a xlink:title="newRelease &#45;&gt; version">
<path fill="none" stroke="black" d="M345.79,-36.43C357.94,-42.2 371.31,-48.55 383.35,-54.26"/>
<polygon fill="black" stroke="black" points="381.63,-57.32 392.16,-58.45 384.63,-51 381.63,-57.32"/>
</a>
</g>
</g>
<!-- 8 -->
<g id="node9" class="node">
<title>8</title>
<g id="a_node9"><a xlink:title="Push, make tag, make release.">
<ellipse fill="none" stroke="black" cx="170.48" cy="-31" rx="56.98" ry="18"/>
<text xml:space="preserve" text-anchor="middle" x="170.48" y="-25.95" font-family="Times New Roman,serif" font-size="14.00">pushRelease</text>
</a>
</g>
</g>
<!-- 8&#45;&gt;6 -->
<g id="edge7" class="edge">
<title>8&#45;&gt;6</title>
<g id="a_edge7"><a xlink:title="pushRelease &#45;&gt; pushAndTag">
<path fill="none" stroke="black" d="M212.26,-43.52C224.83,-47.39 238.87,-51.7 252.14,-55.77"/>
<polygon fill="black" stroke="black" points="251.02,-59.09 261.61,-58.68 253.08,-52.4 251.02,-59.09"/>
</a>
</g>
</g>
<!-- 8&#45;&gt;7 -->
<g id="edge8" class="edge">
<title>8&#45;&gt;7</title>
<g id="a_edge8"><a xlink:title="pushRelease &#45;&gt; newRelease">
<path fill="none" stroke="black" d="M225.39,-25.75C234.85,-24.83 244.68,-23.87 254.06,-22.96"/>
<polygon fill="black" stroke="black" points="254.1,-26.47 263.72,-22.02 253.43,-19.5 254.1,-26.47"/>
</a>
</g>
</g>
<!-- 9 -->
<g id="node10" class="node">
<title>9</title>
<g id="a_node10"><a xlink:title="Push NuGet package.">
<polygon fill="none" stroke="black" points="77.5,-117 0,-117 0,-81 77.5,-81 77.5,-117"/>
<text xml:space="preserve" text-anchor="middle" x="38.75" y="-93.95" font-family="Times New Roman,serif" font-size="14.00">pushNuGet</text>
</a>
</g>
</g>
<!-- 9&#45;&gt;5 -->
<g id="edge9" class="edge">
<title>9&#45;&gt;5</title>
<g id="a_edge9"><a xlink:title="pushNuGet &#45;&gt; nuget">
<path fill="none" stroke="black" d="M77.97,-99C94.98,-99 114.94,-99 131.87,-99"/>
<polygon fill="black" stroke="black" points="131.52,-102.5 141.52,-99 131.52,-95.5 131.52,-102.5"/>
</a>
</g>
</g>
<!-- 10 -->
<g id="node11" class="node">
<title>10</title>
<g id="a_node11"><a xlink:title="Push PSGallery package.">
<polygon fill="none" stroke="black" points="218.98,-171 121.98,-171 121.98,-135 218.98,-135 218.98,-171"/>
<text xml:space="preserve" text-anchor="middle" x="170.48" y="-147.95" font-family="Times New Roman,serif" font-size="14.00">pushPSGallery</text>
</a>
</g>
</g>
<!-- 10&#45;&gt;4 -->
<g id="edge10" class="edge">
<title>10&#45;&gt;4</title>
<g id="a_edge10"><a xlink:title="pushPSGallery &#45;&gt; module">
<path fill="none" stroke="black" d="M219.29,-143.33C234.52,-140.25 251.19,-136.88 265.73,-133.94"/>
<polygon fill="black" stroke="black" points="266.29,-137.39 275.4,-131.98 264.9,-130.53 266.29,-137.39"/>
</a>
</g>
</g>
<!-- 11 -->
<g id="node12" class="node">
<title>11</title>
<g id="a_node12"><a xlink:title="Calls tests infinitely. NOTE: normal scripts do not use ${*}.">
<polygon fill="none" stroke="black" points="65.75,-171 11.75,-171 11.75,-135 65.75,-135 65.75,-171"/>
<text xml:space="preserve" text-anchor="middle" x="38.75" y="-147.95" font-family="Times New Roman,serif" font-size="14.00">loop</text>
</a>
</g>
</g>
<!-- 12 -->
<g id="node13" class="node">
<title>12</title>
<g id="a_node13"><a xlink:title="Test and check expected output.">
<polygon fill="none" stroke="black" points="65.75,-225 11.75,-225 11.75,-189 65.75,-189 65.75,-225"/>
<text xml:space="preserve" text-anchor="middle" x="38.75" y="-201.95" font-family="Times New Roman,serif" font-size="14.00">test</text>
</a>
</g>
</g>
<!-- 13 -->
<g id="node14" class="node">
<title>13</title>
<g id="a_node14"><a xlink:title="Test Desktop.">
<polygon fill="none" stroke="black" points="450.71,-306 392.71,-306 392.71,-270 450.71,-270 450.71,-306"/>
<text xml:space="preserve" text-anchor="middle" x="421.71" y="-282.95" font-family="Times New Roman,serif" font-size="14.00">desktop</text>
</a>
</g>
</g>
<!-- 14 -->
<g id="node15" class="node">
<title>14</title>
<g id="a_node15"><a xlink:title="Test Core.">
<polygon fill="none" stroke="black" points="448.71,-252 394.71,-252 394.71,-216 448.71,-216 448.71,-252"/>
<text xml:space="preserve" text-anchor="middle" x="421.71" y="-228.95" font-family="Times New Roman,serif" font-size="14.00">core</text>
</a>
</g>
</g>
<!-- 15 -->
<g id="node16" class="node">
<title>15</title>
<g id="a_node16"><a xlink:title="Gets dependencies">
<polygon fill="none" stroke="black" points="65.75,-279 11.75,-279 11.75,-243 65.75,-243 65.75,-279"/>
<text xml:space="preserve" text-anchor="middle" x="38.75" y="-255.95" font-family="Times New Roman,serif" font-size="14.00">boot</text>
</a>
</g>
</g>
<!-- 16 -->
<g id="node17" class="node">
<title>16</title>
<g id="a_node17"><a xlink:title="The default task: make, test, clean.">
<ellipse fill="none" stroke="black" cx="305.96" cy="-261" rx="27" ry="18"/>
<text xml:space="preserve" text-anchor="middle" x="305.96" y="-255.95" font-family="Times New Roman,serif" font-size="14.00">.</text>
</a>
</g>
</g>
<!-- 16&#45;&gt;1 -->
<g id="edge14" class="edge">
<title>16&#45;&gt;1</title>
<g id="a_edge14"><a xlink:title=". &#45;&gt; clean">
<path fill="none" stroke="black" d="M325.24,-274.01C341.5,-285.6 365.74,-302.86 385.73,-317.09"/>
<polygon fill="black" stroke="black" points="383.44,-319.76 393.62,-322.71 387.5,-314.06 383.44,-319.76"/>
</a>
</g>
</g>
<!-- 16&#45;&gt;2 -->
<g id="edge11" class="edge">
<title>16&#45;&gt;2</title>
<g id="a_edge11"><a xlink:title=". &#45;&gt; help">
<path fill="none" stroke="black" d="M325.24,-247.99C341.5,-236.4 365.74,-219.14 385.73,-204.91"/>
<polygon fill="black" stroke="black" points="387.5,-207.94 393.62,-199.29 383.44,-202.24 387.5,-207.94"/>
</a>
</g>
</g>
<!-- 16&#45;&gt;13 -->
<g id="edge12" class="edge">
<title>16&#45;&gt;13</title>
<g id="a_edge12"><a xlink:title=". &#45;&gt; desktop">
<path fill="none" stroke="black" d="M331.93,-266.93C346.48,-270.38 365.17,-274.82 381.64,-278.73"/>
<polygon fill="black" stroke="black" points="380.6,-282.08 391.14,-280.98 382.22,-275.26 380.6,-282.08"/>
</a>
</g>
</g>
<!-- 16&#45;&gt;14 -->
<g id="edge13" class="edge">
<title>16&#45;&gt;14</title>
<g id="a_edge13"><a xlink:title=". &#45;&gt; core">
<path fill="none" stroke="black" d="M331.93,-255.07C346.91,-251.52 366.26,-246.92 383.08,-242.93"/>
<polygon fill="black" stroke="black" points="383.83,-246.35 392.75,-240.64 382.21,-239.54 383.83,-246.35"/>
</a>
</g>
</g>
</g>
</svg>
