<?xml version="1.0" encoding="UTF-8" standalone="no"?>
<!DOCTYPE svg PUBLIC "-//W3C//DTD SVG 1.1//EN"
 "http://www.w3.org/Graphics/SVG/1.1/DTD/svg11.dtd">
<!-- Generated by graphviz version 8.0.5 (20230430.1635)
 -->
<!-- Pages: 1 -->
<svg width="508pt" height="307pt"
 viewBox="0.00 0.00 508.12 307.25" xmlns="http://www.w3.org/2000/svg" xmlns:xlink="http://www.w3.org/1999/xlink">
<g id="graph0" class="graph" transform="scale(1 1) rotate(0) translate(4 303.25)">
<polygon fill="white" stroke="none" points="-4,4 -4,-303.25 504.12,-303.25 504.12,4 -4,4"/>
<!-- 1 -->
<g id="node1" class="node">
<title>1</title>
<g id="a_node1"><a xlink:title="Generate meta files.">
<polygon fill="none" stroke="black" points="317.5,-123.75 269.5,-123.75 269.5,-87.75 323.5,-87.75 323.5,-117.75 317.5,-123.75"/>
<polyline fill="none" stroke="black" points="317.5,-123.75 317.5,-117.75"/>
<polyline fill="none" stroke="black" points="323.5,-117.75 317.5,-117.75"/>
<text text-anchor="middle" x="296.5" y="-100.33" font-family="Times New Roman,serif" font-size="14.00">meta</text>
</a>
</g>
</g>
<!-- 6 -->
<g id="node6" class="node">
<title>6</title>
<g id="a_node6"><a xlink:title="Set $script:Version.">
<polygon fill="none" stroke="black" points="324.75,-36 268.25,-36 268.25,0 324.75,0 324.75,-36"/>
<text text-anchor="middle" x="296.5" y="-12.57" font-family="Times New Roman,serif" font-size="14.00">version</text>
</a>
</g>
</g>
<!-- 1&#45;&gt;6 -->
<g id="edge1" class="edge">
<title>1&#45;&gt;6</title>
<g id="a_edge1"><a xlink:title="meta &#45;&gt; version">
<path fill="none" stroke="black" d="M296.5,-87.4C296.5,-75.89 296.5,-60.53 296.5,-47.28"/>
<polygon fill="black" stroke="black" points="300,-47.33 296.5,-37.33 293,-47.33 300,-47.33"/>
</a>
</g>
<g id="a_edge1&#45;label"><a xlink:title="meta &#45;&gt; version">
<text text-anchor="middle" x="299.88" y="-56.45" font-family="Times New Roman,serif" font-size="14.00">1</text>
</a>
</g>
</g>
<!-- 2 -->
<g id="node2" class="node">
<title>2</title>
<g id="a_node2"><a xlink:title="Remove temp files.">
<polygon fill="none" stroke="black" points="285.5,-211.5 231.5,-211.5 231.5,-175.5 285.5,-175.5 285.5,-211.5"/>
<text text-anchor="middle" x="258.5" y="-188.07" font-family="Times New Roman,serif" font-size="14.00">clean</text>
</a>
</g>
</g>
<!-- 3 -->
<g id="node3" class="node">
<title>3</title>
<g id="a_node3"><a xlink:title="Build, publish in post&#45;build, make help.">
<polygon fill="none" stroke="black" points="357.5,-211.5 303.5,-211.5 303.5,-175.5 357.5,-175.5 357.5,-211.5"/>
<text text-anchor="middle" x="330.5" y="-188.07" font-family="Times New Roman,serif" font-size="14.00">build</text>
</a>
</g>
</g>
<!-- 3&#45;&gt;1 -->
<g id="edge2" class="edge">
<title>3&#45;&gt;1</title>
<g id="a_edge2"><a xlink:title="build &#45;&gt; meta">
<path fill="none" stroke="black" d="M323.62,-175.15C318.97,-163.41 312.72,-147.66 307.39,-134.23"/>
<polygon fill="black" stroke="black" points="310.31,-133.08 303.37,-125.08 303.8,-135.66 310.31,-133.08"/>
</a>
</g>
<g id="a_edge2&#45;label"><a xlink:title="build &#45;&gt; meta">
<text text-anchor="middle" x="320.88" y="-144.2" font-family="Times New Roman,serif" font-size="14.00">1</text>
</a>
</g>
</g>
<!-- 5 -->
<g id="node5" class="node">
<title>5</title>
<g id="a_node5"><a xlink:title="Build help by https://github.com/nightroman/Helps">
<polygon fill="none" stroke="black" points="389.5,-123.75 341.5,-123.75 341.5,-87.75 395.5,-87.75 395.5,-117.75 389.5,-123.75"/>
<polyline fill="none" stroke="black" points="389.5,-123.75 389.5,-117.75"/>
<polyline fill="none" stroke="black" points="395.5,-117.75 389.5,-117.75"/>
<text text-anchor="middle" x="368.5" y="-100.33" font-family="Times New Roman,serif" font-size="14.00">help</text>
</a>
</g>
</g>
<!-- 3&#45;&gt;5 -->
<g id="edge3" class="edge">
<title>3&#45;&gt;5</title>
<g id="a_edge3"><a xlink:title="build &#45;&gt; help">
<path fill="none" stroke="black" stroke-dasharray="1,5" d="M338.19,-175.15C343.44,-163.29 350.51,-147.34 356.5,-133.83"/>
<polygon fill="black" stroke="black" points="359.97,-135.64 360.82,-125.08 353.57,-132.8 359.97,-135.64"/>
</a>
</g>
<g id="a_edge3&#45;label"><a xlink:title="build &#45;&gt; help">
<text text-anchor="middle" x="356.88" y="-144.2" font-family="Times New Roman,serif" font-size="14.00">3</text>
</a>
</g>
</g>
<!-- 4 -->
<g id="node4" class="node">
<title>4</title>
<g id="a_node4"><a xlink:title="Publish the module (post&#45;build).">
<polygon fill="none" stroke="black" points="362.75,-299.25 306.25,-299.25 306.25,-263.25 362.75,-263.25 362.75,-299.25"/>
<text text-anchor="middle" x="334.5" y="-275.82" font-family="Times New Roman,serif" font-size="14.00">publish</text>
</a>
</g>
</g>
<!-- 7 -->
<g id="node7" class="node">
<title>7</title>
<g id="a_node7"><a xlink:title="Convert markdown to HTML.">
<polygon fill="none" stroke="black" points="251.12,-123.75 175.88,-123.75 175.88,-87.75 251.12,-87.75 251.12,-123.75"/>
<text text-anchor="middle" x="213.5" y="-100.33" font-family="Times New Roman,serif" font-size="14.00">markdown</text>
</a>
</g>
</g>
<!-- 8 -->
<g id="node8" class="node">
<title>8</title>
<g id="a_node8"><a xlink:title="Make the package.">
<polygon fill="none" stroke="black" points="213.38,-211.5 151.62,-211.5 151.62,-175.5 213.38,-175.5 213.38,-211.5"/>
<text text-anchor="middle" x="182.5" y="-188.07" font-family="Times New Roman,serif" font-size="14.00">package</text>
</a>
</g>
</g>
<!-- 8&#45;&gt;6 -->
<g id="edge5" class="edge">
<title>8&#45;&gt;6</title>
<g id="a_edge5"><a xlink:title="package &#45;&gt; version">
<path fill="none" stroke="black" d="M171.55,-175.25C159.18,-153.36 142.85,-115.16 159.75,-87.75 180.92,-53.41 225.09,-35.62 257.52,-26.83"/>
<polygon fill="black" stroke="black" points="258.18,-30.02 267.02,-24.18 256.47,-23.23 258.18,-30.02"/>
</a>
</g>
<g id="a_edge5&#45;label"><a xlink:title="package &#45;&gt; version">
<text text-anchor="middle" x="163.88" y="-100.33" font-family="Times New Roman,serif" font-size="14.00">2</text>
</a>
</g>
</g>
<!-- 8&#45;&gt;7 -->
<g id="edge4" class="edge">
<title>8&#45;&gt;7</title>
<g id="a_edge4"><a xlink:title="package &#45;&gt; markdown">
<path fill="none" stroke="black" d="M188.77,-175.15C193.02,-163.41 198.71,-147.66 203.57,-134.23"/>
<polygon fill="black" stroke="black" points="207.13,-135.67 207.24,-125.08 200.54,-133.29 207.13,-135.67"/>
</a>
</g>
<g id="a_edge4&#45;label"><a xlink:title="package &#45;&gt; markdown">
<text text-anchor="middle" x="204.88" y="-144.2" font-family="Times New Roman,serif" font-size="14.00">1</text>
</a>
</g>
</g>
<!-- 9 -->
<g id="node9" class="node">
<title>9</title>
<g id="a_node9"><a xlink:title="Make and push the PSGallery package.">
<polygon fill="none" stroke="black" points="187.12,-299.25 87.88,-299.25 87.88,-263.25 187.12,-263.25 187.12,-299.25"/>
<text text-anchor="middle" x="137.5" y="-275.82" font-family="Times New Roman,serif" font-size="14.00">pushPSGallery</text>
</a>
</g>
</g>
<!-- 9&#45;&gt;2 -->
<g id="edge7" class="edge">
<title>9&#45;&gt;2</title>
<g id="a_edge7"><a xlink:title="pushPSGallery &#45;&gt; clean">
<path fill="none" stroke="black" d="M161.99,-262.9C180.19,-250 205.24,-232.25 225.25,-218.06"/>
<polygon fill="black" stroke="black" points="226.92,-220.46 233.05,-211.83 222.87,-214.75 226.92,-220.46"/>
</a>
</g>
<g id="a_edge7&#45;label"><a xlink:title="pushPSGallery &#45;&gt; clean">
<text text-anchor="middle" x="212.88" y="-231.95" font-family="Times New Roman,serif" font-size="14.00">3</text>
</a>
</g>
</g>
<!-- 9&#45;&gt;8 -->
<g id="edge6" class="edge">
<title>9&#45;&gt;8</title>
<g id="a_edge6"><a xlink:title="pushPSGallery &#45;&gt; package">
<path fill="none" stroke="black" d="M146.61,-262.9C152.89,-250.93 161.36,-234.78 168.5,-221.18"/>
<polygon fill="black" stroke="black" points="171.86,-223.31 173.41,-212.83 165.66,-220.06 171.86,-223.31"/>
</a>
</g>
<g id="a_edge6&#45;label"><a xlink:title="pushPSGallery &#45;&gt; package">
<text text-anchor="middle" x="167.88" y="-231.95" font-family="Times New Roman,serif" font-size="14.00">1</text>
</a>
</g>
</g>
<!-- 13 -->
<g id="node13" class="node">
<title>13</title>
<g id="a_node13"><a xlink:title="Test Desktop.">
<polygon fill="none" stroke="black" points="61,-211.5 0,-211.5 0,-175.5 61,-175.5 61,-211.5"/>
<text text-anchor="middle" x="30.5" y="-188.07" font-family="Times New Roman,serif" font-size="14.00">desktop</text>
</a>
</g>
</g>
<!-- 9&#45;&gt;13 -->
<g id="edge8" class="edge">
<title>9&#45;&gt;13</title>
<g id="a_edge8"><a xlink:title="pushPSGallery &#45;&gt; desktop">
<path fill="none" stroke="black" d="M115.85,-262.9C99.89,-250.11 78,-232.57 60.38,-218.45"/>
<polygon fill="black" stroke="black" points="63.11,-215.35 53.12,-211.83 58.74,-220.81 63.11,-215.35"/>
</a>
</g>
<g id="a_edge8&#45;label"><a xlink:title="pushPSGallery &#45;&gt; desktop">
<text text-anchor="middle" x="97.88" y="-231.95" font-family="Times New Roman,serif" font-size="14.00">4</text>
</a>
</g>
</g>
<!-- 14 -->
<g id="node14" class="node">
<title>14</title>
<g id="a_node14"><a xlink:title="Test Core.">
<polygon fill="none" stroke="black" points="133.5,-211.5 79.5,-211.5 79.5,-175.5 133.5,-175.5 133.5,-211.5"/>
<text text-anchor="middle" x="106.5" y="-188.07" font-family="Times New Roman,serif" font-size="14.00">core</text>
</a>
</g>
</g>
<!-- 9&#45;&gt;14 -->
<g id="edge9" class="edge">
<title>9&#45;&gt;14</title>
<g id="a_edge9"><a xlink:title="pushPSGallery &#45;&gt; core">
<path fill="none" stroke="black" d="M131.23,-262.9C126.98,-251.16 121.29,-235.41 116.43,-221.98"/>
<polygon fill="black" stroke="black" points="119.46,-221.04 112.76,-212.83 112.87,-223.42 119.46,-221.04"/>
</a>
</g>
<g id="a_edge9&#45;label"><a xlink:title="pushPSGallery &#45;&gt; core">
<text text-anchor="middle" x="128.88" y="-231.95" font-family="Times New Roman,serif" font-size="14.00">5</text>
</a>
</g>
</g>
<!-- 10 -->
<g id="node10" class="node">
<title>10</title>
<g id="a_node10"><a xlink:title="Push repository with a version tag.">
<polygon fill="none" stroke="black" points="499.38,-123.75 413.62,-123.75 413.62,-87.75 499.38,-87.75 499.38,-123.75"/>
<text text-anchor="middle" x="456.5" y="-100.33" font-family="Times New Roman,serif" font-size="14.00">pushRelease</text>
</a>
</g>
</g>
<!-- 10&#45;&gt;6 -->
<g id="edge10" class="edge">
<title>10&#45;&gt;6</title>
<g id="a_edge10"><a xlink:title="pushRelease &#45;&gt; version">
<path fill="none" stroke="black" d="M424.12,-87.4C398.26,-73.54 361.96,-54.08 334.68,-39.46"/>
<polygon fill="black" stroke="black" points="336.54,-35.95 326.08,-34.31 333.24,-42.12 336.54,-35.95"/>
</a>
</g>
<g id="a_edge10&#45;label"><a xlink:title="pushRelease &#45;&gt; version">
<text text-anchor="middle" x="394.88" y="-56.45" font-family="Times New Roman,serif" font-size="14.00">1</text>
</a>
</g>
</g>
<!-- 11 -->
<g id="node11" class="node">
<title>11</title>
<g id="a_node11"><a xlink:title="Copy external scripts to sources.">
<polygon fill="none" stroke="black" points="494.12,-36 412.88,-36 412.88,0 500.12,0 500.12,-30 494.12,-36"/>
<polyline fill="none" stroke="black" points="494.12,-36 494.12,-30"/>
<polyline fill="none" stroke="black" points="500.12,-30 494.12,-30"/>
<text text-anchor="middle" x="456.5" y="-12.57" font-family="Times New Roman,serif" font-size="14.00">updateScript</text>
</a>
</g>
</g>
<!-- 10&#45;&gt;11 -->
<g id="edge11" class="edge">
<title>10&#45;&gt;11</title>
<g id="a_edge11"><a xlink:title="pushRelease &#45;&gt; updateScript">
<path fill="none" stroke="black" d="M456.5,-87.4C456.5,-75.89 456.5,-60.53 456.5,-47.28"/>
<polygon fill="black" stroke="black" points="460,-47.33 456.5,-37.33 453,-47.33 460,-47.33"/>
</a>
</g>
<g id="a_edge11&#45;label"><a xlink:title="pushRelease &#45;&gt; updateScript">
<text text-anchor="middle" x="459.88" y="-56.45" font-family="Times New Roman,serif" font-size="14.00">2</text>
</a>
</g>
</g>
<!-- 12 -->
<g id="node12" class="node">
<title>12</title>
<g id="a_node12"><a xlink:title="Remove test.test* collections">
<polygon fill="none" stroke="black" points="445.12,-211.5 375.88,-211.5 375.88,-175.5 445.12,-175.5 445.12,-211.5"/>
<text text-anchor="middle" x="410.5" y="-188.07" font-family="Times New Roman,serif" font-size="14.00">cleanTest</text>
</a>
</g>
</g>
<!-- 15 -->
<g id="node15" class="node">
<title>15</title>
<g id="a_node15"><a xlink:title="Test current PowerShell.">
<polygon fill="none" stroke="black" points="437.5,-299.25 383.5,-299.25 383.5,-263.25 437.5,-263.25 437.5,-299.25"/>
<text text-anchor="middle" x="410.5" y="-275.82" font-family="Times New Roman,serif" font-size="14.00">test</text>
</a>
</g>
</g>
<!-- 15&#45;&gt;12 -->
<g id="edge12" class="edge">
<title>15&#45;&gt;12</title>
<g id="a_edge12"><a xlink:title="test &#45;&gt; cleanTest">
<path fill="none" stroke="black" d="M410.5,-262.9C410.5,-251.39 410.5,-236.03 410.5,-222.78"/>
<polygon fill="black" stroke="black" points="414,-222.83 410.5,-212.83 407,-222.83 414,-222.83"/>
</a>
</g>
<g id="a_edge12&#45;label"><a xlink:title="test &#45;&gt; cleanTest">
<text text-anchor="middle" x="413.88" y="-231.95" font-family="Times New Roman,serif" font-size="14.00">2</text>
</a>
</g>
</g>
<!-- 16 -->
<g id="node16" class="node">
<title>16</title>
<g id="a_node16"><a xlink:title="Build and clean.">
<ellipse fill="none" stroke="black" cx="260.5" cy="-281.25" rx="27" ry="18"/>
<text text-anchor="middle" x="260.5" y="-275.82" font-family="Times New Roman,serif" font-size="14.00">.</text>
</a>
</g>
</g>
<!-- 16&#45;&gt;2 -->
<g id="edge14" class="edge">
<title>16&#45;&gt;2</title>
<g id="a_edge14"><a xlink:title=". &#45;&gt; clean">
<path fill="none" stroke="black" d="M260.1,-262.9C259.83,-251.39 259.47,-236.03 259.16,-222.78"/>
<polygon fill="black" stroke="black" points="262.64,-222.74 258.9,-212.83 255.64,-222.91 262.64,-222.74"/>
</a>
</g>
<g id="a_edge14&#45;label"><a xlink:title=". &#45;&gt; clean">
<text text-anchor="middle" x="263.88" y="-231.95" font-family="Times New Roman,serif" font-size="14.00">2</text>
</a>
</g>
</g>
<!-- 16&#45;&gt;3 -->
<g id="edge13" class="edge">
<title>16&#45;&gt;3</title>
<g id="a_edge13"><a xlink:title=". &#45;&gt; build">
<path fill="none" stroke="black" d="M273.01,-264.92C283.21,-252.44 297.81,-234.55 309.74,-219.93"/>
<polygon fill="black" stroke="black" points="312.8,-222.72 316.41,-212.76 307.37,-218.29 312.8,-222.72"/>
</a>
</g>
<g id="a_edge13&#45;label"><a xlink:title=". &#45;&gt; build">
<text text-anchor="middle" x="305.88" y="-231.95" font-family="Times New Roman,serif" font-size="14.00">1</text>
</a>
</g>
</g>
</g>
</svg>
