<?xml version="1.0" encoding="UTF-8" standalone="no"?>
<!DOCTYPE svg PUBLIC "-//W3C//DTD SVG 1.1//EN"
 "http://www.w3.org/Graphics/SVG/1.1/DTD/svg11.dtd">
<!-- Generated by graphviz version 8.0.5 (20230430.1635)
 -->
<!-- Pages: 1 -->
<svg width="504pt" height="534pt"
 viewBox="0.00 0.00 504.00 534.00" xmlns="http://www.w3.org/2000/svg" xmlns:xlink="http://www.w3.org/1999/xlink">
<g id="graph0" class="graph" transform="scale(1 1) rotate(0) translate(4 530)">
<polygon fill="white" stroke="none" points="-4,4 -4,-530 500,-530 500,4 -4,4"/>
<!-- 1 -->
<g id="node1" class="node">
<title>1</title>
<g id="a_node1"><a xlink:title="Stamps the version onto the Module">
<polygon fill="none" stroke="black" points="373.5,-360 278,-360 278,-324 373.5,-324 373.5,-360"/>
<text text-anchor="middle" x="325.75" y="-336.57" font-family="Times New Roman,serif" font-size="14.00">StampVersion</text>
</a>
</g>
</g>
<!-- 2 -->
<g id="node2" class="node">
<title>2</title>
<g id="a_node2"><a xlink:title="Generating a Checksum of the Zip">
<polygon fill="none" stroke="black" points="376.5,-252 275,-252 275,-216 376.5,-216 376.5,-252"/>
<text text-anchor="middle" x="325.75" y="-228.57" font-family="Times New Roman,serif" font-size="14.00">PrintChecksum</text>
</a>
</g>
</g>
<!-- 3 -->
<g id="node3" class="node">
<title>3</title>
<g id="a_node3"><a xlink:title="Installs Chocolatey">
<polygon fill="none" stroke="black" points="490,-386 412.5,-386 412.5,-350 496,-350 496,-380 490,-386"/>
<polyline fill="none" stroke="black" points="490,-386 490,-380"/>
<polyline fill="none" stroke="black" points="496,-380 490,-380"/>
<text text-anchor="middle" x="454.25" y="-362.57" font-family="Times New Roman,serif" font-size="14.00">ChocoDeps</text>
</a>
</g>
</g>
<!-- 4 -->
<g id="node4" class="node">
<title>4</title>
<g id="a_node4"><a xlink:title="Install dependencies for packaging">
<polygon fill="none" stroke="black" points="356.25,-306 289.25,-306 289.25,-270 362.25,-270 362.25,-300 356.25,-306"/>
<polyline fill="none" stroke="black" points="356.25,-306 356.25,-300"/>
<polyline fill="none" stroke="black" points="362.25,-300 356.25,-300"/>
<text text-anchor="middle" x="325.75" y="-282.57" font-family="Times New Roman,serif" font-size="14.00">PackDeps</text>
</a>
</g>
</g>
<!-- 4&#45;&gt;3 -->
<g id="edge1" class="edge">
<title>4&#45;&gt;3</title>
<g id="a_edge1"><a xlink:title="PackDeps &#45;&gt; ChocoDeps">
<path fill="none" stroke="black" d="M361.81,-306.42C366.79,-309.21 371.81,-312.12 376.5,-315 390.85,-323.81 406.21,-334.21 419.39,-343.46"/>
<polygon fill="black" stroke="black" points="416.94,-346.72 427.12,-349.64 420.98,-341 416.94,-346.72"/>
</a>
</g>
</g>
<!-- 5 -->
<g id="node5" class="node">
<title>5</title>
<g id="a_node5"><a xlink:title="Install dependencies for compiling/building">
<polygon fill="none" stroke="black" points="363,-198 288.5,-198 288.5,-162 363,-162 363,-198"/>
<text text-anchor="middle" x="325.75" y="-174.57" font-family="Times New Roman,serif" font-size="14.00">BuildDeps</text>
</a>
</g>
</g>
<!-- 6 -->
<g id="node6" class="node">
<title>6</title>
<g id="a_node6"><a xlink:title="Install dependencies for running tests">
<polygon fill="none" stroke="black" points="210.12,-144 140.12,-144 140.12,-108 210.12,-108 210.12,-144"/>
<text text-anchor="middle" x="175.12" y="-120.58" font-family="Times New Roman,serif" font-size="14.00">TestDeps</text>
</a>
</g>
</g>
<!-- 7 -->
<g id="node7" class="node">
<title>7</title>
<g id="a_node7"><a xlink:title="Install dependencies for documentation">
<polygon fill="none" stroke="black" points="363.38,-467 288.12,-467 288.12,-431 363.38,-431 363.38,-467"/>
<text text-anchor="middle" x="325.75" y="-443.57" font-family="Times New Roman,serif" font-size="14.00">DocsDeps</text>
</a>
</g>
</g>
<!-- 7&#45;&gt;3 -->
<g id="edge2" class="edge">
<title>7&#45;&gt;3</title>
<g id="a_edge2"><a xlink:title="DocsDeps &#45;&gt; ChocoDeps">
<path fill="none" stroke="black" d="M355.45,-430.62C373.25,-419.23 396.3,-404.47 415.55,-392.14"/>
<polygon fill="black" stroke="black" points="417.12,-394.65 423.66,-386.31 413.35,-388.75 417.12,-394.65"/>
</a>
</g>
</g>
<!-- 8 -->
<g id="node8" class="node">
<title>8</title>
<g id="a_node8"><a xlink:title="Build the .NET Listener">
<polygon fill="none" stroke="black" points="202.12,-198 148.12,-198 148.12,-162 202.12,-162 202.12,-198"/>
<text text-anchor="middle" x="175.12" y="-174.57" font-family="Times New Roman,serif" font-size="14.00">Build</text>
</a>
</g>
</g>
<!-- 8&#45;&gt;5 -->
<g id="edge3" class="edge">
<title>8&#45;&gt;5</title>
<g id="a_edge3"><a xlink:title="Build &#45;&gt; BuildDeps">
<path fill="none" stroke="black" d="M202.35,-180C223.12,-180 252.65,-180 277.51,-180"/>
<polygon fill="black" stroke="black" points="277.19,-183.5 287.19,-180 277.19,-176.5 277.19,-183.5"/>
</a>
</g>
</g>
<!-- 9 -->
<g id="node9" class="node">
<title>9</title>
<g id="a_node9"><a xlink:title="Creates a Zip of the Module">
<polygon fill="none" stroke="black" points="196.12,-252 148.12,-252 148.12,-216 202.12,-216 202.12,-246 196.12,-252"/>
<polyline fill="none" stroke="black" points="196.12,-252 196.12,-246"/>
<polyline fill="none" stroke="black" points="202.12,-246 196.12,-246"/>
<text text-anchor="middle" x="175.12" y="-228.57" font-family="Times New Roman,serif" font-size="14.00">7Zip</text>
</a>
</g>
</g>
<!-- 9&#45;&gt;1 -->
<g id="edge5" class="edge">
<title>9&#45;&gt;1</title>
<g id="a_edge5"><a xlink:title="7Zip &#45;&gt; StampVersion">
<path fill="none" stroke="black" d="M202.47,-241.48C214.51,-245.81 228.41,-252.18 239,-261 261.17,-279.45 253.7,-295.55 275,-315 275.85,-315.78 276.73,-316.54 277.63,-317.29"/>
<polygon fill="black" stroke="black" points="275.11,-320.51 285.24,-323.62 279.26,-314.88 275.11,-320.51"/>
</a>
</g>
</g>
<!-- 9&#45;&gt;2 -->
<g id="edge6" class="edge">
<title>9&#45;&gt;2</title>
<g id="a_edge6"><a xlink:title="7Zip &#45;&gt; PrintChecksum">
<path fill="none" stroke="black" d="M202.35,-234C219.46,-234 242.53,-234 264.03,-234"/>
<polygon fill="black" stroke="black" points="263.76,-237.5 273.76,-234 263.76,-230.5 263.76,-237.5"/>
</a>
</g>
</g>
<!-- 9&#45;&gt;4 -->
<g id="edge4" class="edge">
<title>9&#45;&gt;4</title>
<g id="a_edge4"><a xlink:title="7Zip &#45;&gt; PackDeps">
<path fill="none" stroke="black" d="M202.35,-243.53C223.52,-251.22 253.81,-262.23 278.96,-271.36"/>
<polygon fill="black" stroke="black" points="277.43,-274.89 288.03,-275.02 279.82,-268.32 277.43,-274.89"/>
</a>
</g>
</g>
<!-- 10 -->
<g id="node10" class="node">
<title>10</title>
<g id="a_node10"><a xlink:title="Creates a Chocolately package of the Module">
<polygon fill="none" stroke="black" points="210.12,-306 134.12,-306 134.12,-270 216.12,-270 216.12,-300 210.12,-306"/>
<polyline fill="none" stroke="black" points="210.12,-306 210.12,-300"/>
<polyline fill="none" stroke="black" points="216.12,-300 210.12,-300"/>
<text text-anchor="middle" x="175.12" y="-282.57" font-family="Times New Roman,serif" font-size="14.00">ChocoPack</text>
</a>
</g>
</g>
<!-- 10&#45;&gt;1 -->
<g id="edge8" class="edge">
<title>10&#45;&gt;1</title>
<g id="a_edge8"><a xlink:title="ChocoPack &#45;&gt; StampVersion">
<path fill="none" stroke="black" d="M216.35,-302.61C232.16,-308.36 250.59,-315.06 267.73,-321.28"/>
<polygon fill="black" stroke="black" points="266.05,-324.76 276.64,-324.89 268.44,-318.18 266.05,-324.76"/>
</a>
</g>
</g>
<!-- 10&#45;&gt;4 -->
<g id="edge7" class="edge">
<title>10&#45;&gt;4</title>
<g id="a_edge7"><a xlink:title="ChocoPack &#45;&gt; PackDeps">
<path fill="none" stroke="black" d="M216.35,-288C235.33,-288 258.11,-288 277.88,-288"/>
<polygon fill="black" stroke="black" points="277.81,-291.5 287.81,-288 277.81,-284.5 277.81,-291.5"/>
</a>
</g>
</g>
<!-- 11 -->
<g id="node11" class="node">
<title>11</title>
<g id="a_node11"><a xlink:title="Create docker tags">
<polygon fill="none" stroke="black" points="211.62,-360 132.62,-360 132.62,-324 217.62,-324 217.62,-354 211.62,-360"/>
<polyline fill="none" stroke="black" points="211.62,-360 211.62,-354"/>
<polyline fill="none" stroke="black" points="217.62,-354 211.62,-354"/>
<text text-anchor="middle" x="175.12" y="-336.57" font-family="Times New Roman,serif" font-size="14.00">DockerPack</text>
</a>
</g>
</g>
<!-- 12 -->
<g id="node12" class="node">
<title>12</title>
<g id="a_node12"><a xlink:title="Package up the Module">
<polygon fill="none" stroke="black" points="58.62,-306 10.62,-306 10.62,-270 64.62,-270 64.62,-300 58.62,-306"/>
<polyline fill="none" stroke="black" points="58.62,-306 58.62,-300"/>
<polyline fill="none" stroke="black" points="64.62,-300 58.62,-300"/>
<text text-anchor="middle" x="37.62" y="-282.57" font-family="Times New Roman,serif" font-size="14.00">Pack</text>
</a>
</g>
</g>
<!-- 12&#45;&gt;1 -->
<g id="edge10" class="edge">
<title>12&#45;&gt;1</title>
<g id="a_edge10"><a xlink:title="Pack &#45;&gt; StampVersion">
<path fill="none" stroke="black" d="M48.63,-306.26C60.58,-325.95 82.62,-356.22 111.25,-369 162.26,-391.77 226.51,-378.74 271.14,-363.95"/>
<polygon fill="black" stroke="black" points="272.17,-366.95 280.47,-360.38 269.88,-360.34 272.17,-366.95"/>
</a>
</g>
</g>
<!-- 12&#45;&gt;8 -->
<g id="edge9" class="edge">
<title>12&#45;&gt;8</title>
<g id="a_edge9"><a xlink:title="Pack &#45;&gt; Build">
<path fill="none" stroke="black" d="M51.25,-269.81C64.47,-251.86 86.7,-224.63 111.25,-207 119.24,-201.26 128.65,-196.41 137.71,-192.47"/>
<polygon fill="black" stroke="black" points="138.75,-195.42 146.7,-188.41 136.12,-188.93 138.75,-195.42"/>
</a>
</g>
</g>
<!-- 12&#45;&gt;9 -->
<g id="edge11" class="edge">
<title>12&#45;&gt;9</title>
<g id="a_edge11"><a xlink:title="Pack &#45;&gt; 7Zip">
<path fill="none" stroke="black" d="M65.07,-277.46C85.78,-269.21 114.8,-257.64 137.7,-248.51"/>
<polygon fill="black" stroke="black" points="138.75,-251.47 146.74,-244.51 136.16,-244.96 138.75,-251.47"/>
</a>
</g>
</g>
<!-- 12&#45;&gt;10 -->
<g id="edge12" class="edge">
<title>12&#45;&gt;10</title>
<g id="a_edge12"><a xlink:title="Pack &#45;&gt; ChocoPack">
<path fill="none" stroke="black" d="M65.07,-288C81.5,-288 103.17,-288 122.86,-288"/>
<polygon fill="black" stroke="black" points="122.86,-291.5 132.86,-288 122.86,-284.5 122.86,-291.5"/>
</a>
</g>
</g>
<!-- 12&#45;&gt;11 -->
<g id="edge13" class="edge">
<title>12&#45;&gt;11</title>
<g id="a_edge13"><a xlink:title="Pack &#45;&gt; DockerPack">
<path fill="none" stroke="black" d="M65.07,-298.54C81.34,-305.02 102.74,-313.55 122.27,-321.34"/>
<polygon fill="black" stroke="black" points="120.69,-324.87 131.28,-325.32 123.28,-318.37 120.69,-324.87"/>
</a>
</g>
</g>
<!-- 13 -->
<g id="node13" class="node">
<title>13</title>
<g id="a_node13"><a xlink:title="Run the tests">
<polygon fill="none" stroke="black" points="64.62,-117 10.62,-117 10.62,-81 64.62,-81 64.62,-117"/>
<text text-anchor="middle" x="37.62" y="-93.58" font-family="Times New Roman,serif" font-size="14.00">Test</text>
</a>
</g>
</g>
<!-- 13&#45;&gt;6 -->
<g id="edge15" class="edge">
<title>13&#45;&gt;6</title>
<g id="a_edge15"><a xlink:title="Test &#45;&gt; TestDeps">
<path fill="none" stroke="black" d="M65.07,-104.27C83.24,-107.89 107.81,-112.79 129.04,-117.02"/>
<polygon fill="black" stroke="black" points="128.28,-120.63 138.78,-119.16 129.65,-113.77 128.28,-120.63"/>
</a>
</g>
</g>
<!-- 13&#45;&gt;8 -->
<g id="edge14" class="edge">
<title>13&#45;&gt;8</title>
<g id="a_edge14"><a xlink:title="Test &#45;&gt; Build">
<path fill="none" stroke="black" d="M60.59,-117.45C74.53,-128.62 93.28,-142.65 111.25,-153 119.54,-157.77 128.83,-162.21 137.68,-166.06"/>
<polygon fill="black" stroke="black" points="136.19,-169.65 146.77,-170.28 138.9,-163.19 136.19,-169.65"/>
</a>
</g>
</g>
<!-- 14 -->
<g id="node14" class="node">
<title>14</title>
<g id="a_node14"><a xlink:title="Check if any of the tests failed">
<polygon fill="none" stroke="black" points="233.38,-90 116.88,-90 116.88,-54 233.38,-54 233.38,-90"/>
<text text-anchor="middle" x="175.12" y="-66.58" font-family="Times New Roman,serif" font-size="14.00">CheckFailedTests</text>
</a>
</g>
</g>
<!-- 13&#45;&gt;14 -->
<g id="edge17" class="edge">
<title>13&#45;&gt;14</title>
<g id="a_edge17"><a xlink:title="Test &#45;&gt; CheckFailedTests">
<path fill="none" stroke="black" d="M65.07,-93.73C76.91,-91.37 91.47,-88.47 106.04,-85.57"/>
<polygon fill="black" stroke="black" points="106.5,-88.84 115.62,-83.46 105.13,-81.98 106.5,-88.84"/>
</a>
</g>
</g>
<!-- 15 -->
<g id="node15" class="node">
<title>15</title>
<g id="a_node15"><a xlink:title="If AppyVeyor or GitHub, push code coverage stats">
<polygon fill="none" stroke="black" points="233,-36 111.25,-36 111.25,0 239,0 239,-30 233,-36"/>
<polyline fill="none" stroke="black" points="233,-36 233,-30"/>
<polyline fill="none" stroke="black" points="239,-30 233,-30"/>
<text text-anchor="middle" x="175.12" y="-12.57" font-family="Times New Roman,serif" font-size="14.00">PushCodeCoverage</text>
</a>
</g>
</g>
<!-- 13&#45;&gt;15 -->
<g id="edge16" class="edge">
<title>13&#45;&gt;15</title>
<g id="a_edge16"><a xlink:title="Test &#45;&gt; PushCodeCoverage">
<path fill="none" stroke="black" d="M60.59,-80.55C74.53,-69.38 93.28,-55.35 111.25,-45 113.46,-43.72 115.75,-42.47 118.08,-41.25"/>
<polygon fill="black" stroke="black" points="119.45,-43.98 126.84,-36.4 116.33,-37.71 119.45,-43.98"/>
</a>
</g>
</g>
<!-- 16 -->
<g id="node16" class="node">
<title>16</title>
<g id="a_node16"><a xlink:title="Run the documentation locally">
<polygon fill="none" stroke="black" points="64.62,-463 10.62,-463 10.62,-427 64.62,-427 64.62,-463"/>
<text text-anchor="middle" x="37.62" y="-439.57" font-family="Times New Roman,serif" font-size="14.00">Docs</text>
</a>
</g>
</g>
<!-- 16&#45;&gt;7 -->
<g id="edge18" class="edge">
<title>16&#45;&gt;7</title>
<g id="a_edge18"><a xlink:title="Docs &#45;&gt; DocsDeps">
<path fill="none" stroke="black" d="M64.89,-444.61C103.18,-444.13 176.57,-443.54 239,-445 251.45,-445.29 264.9,-445.82 277.38,-446.39"/>
<polygon fill="black" stroke="black" points="276.88,-449.92 287.04,-446.91 277.22,-442.93 276.88,-449.92"/>
</a>
</g>
</g>
<!-- 17 -->
<g id="node17" class="node">
<title>17</title>
<g id="a_node17"><a xlink:title="Build the function help documentation">
<polygon fill="none" stroke="black" points="225.88,-490 124.38,-490 124.38,-454 225.88,-454 225.88,-490"/>
<text text-anchor="middle" x="175.12" y="-466.57" font-family="Times New Roman,serif" font-size="14.00">DocsHelpBuild</text>
</a>
</g>
</g>
<!-- 16&#45;&gt;17 -->
<g id="edge19" class="edge">
<title>16&#45;&gt;17</title>
<g id="a_edge19"><a xlink:title="Docs &#45;&gt; DocsHelpBuild">
<path fill="none" stroke="black" d="M65.07,-450.27C78.91,-453.03 96.47,-456.53 113.43,-459.91"/>
<polygon fill="black" stroke="black" points="112.39,-463.47 122.88,-461.99 113.76,-456.6 112.39,-463.47"/>
</a>
</g>
</g>
<!-- 17&#45;&gt;7 -->
<g id="edge20" class="edge">
<title>17&#45;&gt;7</title>
<g id="a_edge20"><a xlink:title="DocsHelpBuild &#45;&gt; DocsDeps">
<path fill="none" stroke="black" d="M226.03,-464.28C242.63,-461.71 261.06,-458.86 277.46,-456.32"/>
<polygon fill="black" stroke="black" points="277.56,-459.69 286.9,-454.7 276.49,-452.77 277.56,-459.69"/>
</a>
</g>
</g>
<!-- 18 -->
<g id="node18" class="node">
<title>18</title>
<g id="a_node18"><a xlink:title="Build the documentation">
<polygon fill="none" stroke="black" points="75.25,-526 0,-526 0,-490 75.25,-490 75.25,-526"/>
<text text-anchor="middle" x="37.62" y="-502.57" font-family="Times New Roman,serif" font-size="14.00">DocsBuild</text>
</a>
</g>
</g>
<!-- 18&#45;&gt;7 -->
<g id="edge21" class="edge">
<title>18&#45;&gt;7</title>
<g id="a_edge21"><a xlink:title="DocsBuild &#45;&gt; DocsDeps">
<path fill="none" stroke="black" d="M75.69,-511.55C116.58,-514.28 183.88,-515.23 239,-499 257.62,-493.52 276.45,-483.18 291.71,-473.32"/>
<polygon fill="black" stroke="black" points="293.35,-475.77 299.71,-467.3 289.45,-469.95 293.35,-475.77"/>
</a>
</g>
</g>
<!-- 18&#45;&gt;17 -->
<g id="edge22" class="edge">
<title>18&#45;&gt;17</title>
<g id="a_edge22"><a xlink:title="DocsBuild &#45;&gt; DocsHelpBuild">
<path fill="none" stroke="black" d="M75.65,-498.16C87.4,-495.04 100.71,-491.51 113.66,-488.06"/>
<polygon fill="black" stroke="black" points="114.17,-491.29 122.93,-485.33 112.37,-484.52 114.17,-491.29"/>
</a>
</g>
</g>
</g>
</svg>
